<svg width="27" height="27" viewBox="0 0 27 27" fill="none" xmlns="http://www.w3.org/2000/svg">
<rect x="0.306641" y="0.585938" width="25.9609" height="25.9609" rx="12.9805" fill="white"/>
<path fill-rule="evenodd" clip-rule="evenodd" d="M9.4442 22.232C9.72861 22.232 9.93645 22.2923 10.0677 22.4128C10.199 22.5332 10.2647 22.7206 10.2648 22.9749V24.3376H9.83823V23.0325C9.83823 22.7451 9.6771 22.6015 9.35484 22.6015C9.21564 22.6003 9.07899 22.6387 8.96082 22.7123C8.98126 22.7983 8.99087 22.8865 8.98942 22.9749V24.3376H8.5628V23.0325C8.5628 22.7451 8.40167 22.6015 8.07941 22.6015C7.93237 22.6016 7.78654 22.628 7.6488 22.6795V24.3376H7.2224V22.4456C7.36358 22.3754 7.51302 22.3232 7.66721 22.2904C7.83168 22.252 7.9999 22.2321 8.16877 22.2309C8.43486 22.2309 8.63257 22.2827 8.76192 22.3861C8.97495 22.2844 9.20811 22.2317 9.4442 22.232ZM11.7265 24.4002C11.4013 24.4002 11.1569 24.3071 10.9932 24.121C10.8296 23.9349 10.7477 23.664 10.7476 23.3083C10.7476 22.5886 11.0728 22.2288 11.7232 22.2289C12.0509 22.2289 12.2974 22.3213 12.4625 22.5059C12.6276 22.6905 12.7102 22.958 12.7104 23.3083C12.7104 23.6584 12.6251 23.9279 12.4545 24.1168C12.2839 24.3057 12.0412 24.4002 11.7265 24.4002ZM11.7223 24.0348C12.0962 24.0348 12.283 23.7926 12.2829 23.3083C12.2829 23.0675 12.2385 22.8876 12.1498 22.7686C12.0611 22.6496 11.9189 22.5901 11.7232 22.5899C11.5256 22.5899 11.3841 22.6508 11.2988 22.7726C11.2135 22.8944 11.1709 23.073 11.1709 23.3083C11.1709 23.5435 11.2148 23.7234 11.3028 23.8481C11.3907 23.9727 11.5306 24.0346 11.7223 24.0339V24.0348ZM14.1346 22.2329C14.4379 22.2329 14.6681 22.3246 14.8251 22.5079C14.9821 22.6912 15.0608 22.9508 15.0612 23.2868C15.0612 23.6919 14.9671 23.9785 14.7789 24.1467C14.5908 24.315 14.3516 24.3994 14.0614 24.4002C13.4791 24.4002 13.188 24.2442 13.188 23.9323V21.4522H13.6106V22.3602C13.6956 22.3196 13.7849 22.2886 13.8767 22.2677C13.961 22.2461 14.0475 22.2341 14.1346 22.232V22.2329ZM14.0288 24.0265C14.2506 24.0265 14.4058 23.9622 14.4945 23.8336C14.5832 23.705 14.6275 23.5285 14.6275 23.3041C14.6275 23.0744 14.5808 22.8993 14.4874 22.7788C14.3939 22.6584 14.2552 22.5982 14.0712 22.5983C13.991 22.5989 13.9112 22.6092 13.8335 22.6289C13.7557 22.6477 13.681 22.6776 13.6117 22.7176V23.8263C13.611 23.9594 13.75 24.0258 14.0288 24.0257V24.0265ZM15.5433 21.5597H15.9983V21.9498H15.5433V21.5597ZM15.5555 22.2904H15.9821L15.9861 24.3385H15.5555V22.2904ZM16.5865 24.3385V21.4974H17.0092V24.3376L16.5865 24.3385ZM18.4383 22.2272C18.7552 22.2272 18.9874 22.3306 19.135 22.5376C19.2825 22.7445 19.3549 23.0339 19.3523 23.4057H17.9216C17.9354 23.6082 17.9945 23.7622 18.099 23.8676C18.2035 23.973 18.3518 24.0256 18.5438 24.0254C18.7739 24.0257 19.0002 23.9678 19.2019 23.8571V24.2594C18.9907 24.3532 18.7487 24.4002 18.476 24.4002C18.17 24.4002 17.9296 24.3065 17.7549 24.119C17.5801 23.9316 17.4928 23.6655 17.493 23.3208C17.493 22.9678 17.5756 22.6976 17.7407 22.5103C17.9058 22.323 18.1383 22.2286 18.4383 22.2272ZM18.4261 22.5819C18.2825 22.5819 18.1702 22.6203 18.089 22.697C18.0079 22.7737 17.955 22.9037 17.9305 23.0868H18.9177C18.8986 22.9117 18.8498 22.7838 18.7713 22.7032C18.6928 22.6227 18.5777 22.5822 18.4261 22.5819ZM14.3517 5.69585C13.8811 5.57951 13.519 5.52127 13.2652 5.52112C11.3718 5.52112 9.83667 7.0511 9.83667 8.93785C9.83667 10.8246 11.3724 12.3548 13.2652 12.3548C15.1579 12.3548 16.6939 10.8248 16.6939 8.93785C16.694 8.6622 16.6608 8.38755 16.595 8.11987L19.3208 7.3857C19.5416 8.22513 19.5833 9.10163 19.4433 9.95825C19.3033 10.8149 18.9847 11.6325 18.5081 12.3579L13.9944 20.726H9.81295L12.7842 15.2491C12.8004 15.219 12.7527 15.1525 12.7128 15.1489C9.53777 14.8606 7.05078 12.1998 7.05078 8.96047C7.05078 5.52822 9.84244 2.7461 13.2864 2.7461C13.9169 2.7454 14.5438 2.84012 15.1459 3.02704L14.3517 5.69585Z" fill="#006E53"/>
<path d="M13.2444 10.817C14.2823 10.817 15.1237 9.97567 15.1237 8.93781C15.1237 7.89995 14.2823 7.05859 13.2444 7.05859C12.2066 7.05859 11.3652 7.89995 11.3652 8.93781C11.3652 9.97567 12.2066 10.817 13.2444 10.817Z" fill="#D6E806"/>
<path d="M16.49 7.65651C16.1644 6.84153 15.5369 6.18362 14.7383 5.81987M17.686 7.14385C17.2262 6.01355 16.3568 5.09839 15.2516 4.58125M18.8393 6.75958C18.2536 5.26947 17.1019 4.07177 15.6359 3.42822" stroke="#D6E806" stroke-width="0.427107" stroke-linecap="round"/>
</svg>
