<svg width="27" height="27" viewBox="0 0 27 27" fill="none" xmlns="http://www.w3.org/2000/svg">
<rect x="0.105469" y="0.112305" width="25.9609" height="25.9609" rx="12.9805" fill="#E20010"/>
<path d="M15.4968 3.72705C16.1731 3.73645 16.8183 3.86476 17.4208 4.17123C17.952 4.44317 18.3852 4.82339 18.6808 5.34745C18.8729 5.69341 18.999 6.07212 19.0524 6.46423C19.1624 7.21691 19.0512 7.94508 18.803 8.65711C18.6571 9.07473 18.4552 9.46639 18.2366 9.85112C17.7912 10.6342 17.2189 11.313 16.5533 11.9147C15.6993 12.6874 14.7628 13.3637 13.7607 13.9314C13.3726 14.1507 12.9701 14.3348 12.5371 14.4473C12.2719 14.519 11.998 14.5536 11.7233 14.5503C11.3617 14.5429 11.0787 14.3783 10.8587 14.1008C10.6555 13.8518 10.5508 13.5368 10.5645 13.2157C10.5669 13.1264 10.5798 13.0377 10.6029 12.9514C10.7339 12.4861 10.9118 12.0405 11.1778 11.6342C11.3811 11.3238 11.6234 11.0482 11.9403 10.851C12.2928 10.6316 12.6758 10.5378 13.0902 10.6283C13.2197 10.6587 13.3416 10.7154 13.4484 10.7948C13.7211 10.9897 13.7068 11.2956 13.5758 11.4909C13.4636 11.6607 13.3382 11.8213 13.2007 11.9713C12.9678 12.2222 12.7204 12.4594 12.4789 12.7021C12.2652 12.9168 12.0643 13.1422 11.9015 13.399C11.8171 13.5322 11.7393 13.6681 11.716 13.8281C11.6866 14.0287 11.7908 14.1654 11.9932 14.1842C12.098 14.1927 12.2034 14.1821 12.3044 14.1529C12.6156 14.0669 12.9045 13.9282 13.1883 13.7786C13.6259 13.5471 14.0298 13.2642 14.4235 12.9657C14.9008 12.6038 15.3648 12.2265 15.7924 11.8068C16.2795 11.3293 16.7137 10.8104 17.0459 10.2115C17.2886 9.77429 17.4674 9.31255 17.5469 8.81729C17.6171 8.38109 17.5779 7.95612 17.3759 7.55566C17.2785 7.35773 17.1263 7.19197 16.9374 7.07819C16.8502 7.02567 16.7539 6.98978 16.6536 6.97235C16.2885 6.90758 15.9352 6.96071 15.5881 7.07655C15.2263 7.1975 14.8906 7.37403 14.5643 7.5669C13.8562 7.98697 13.1472 8.40683 12.4723 8.87981C12.134 9.11682 11.8061 9.36894 11.4745 9.61534C11.175 9.83804 10.8775 10.0634 10.5502 10.2454C10.2846 10.3967 9.99707 10.5058 9.69799 10.5689C9.32737 10.6441 8.98576 10.5742 8.67193 10.3727C8.34626 10.1637 8.11825 9.87686 8.01813 9.49725C7.95439 9.25759 7.97952 9.01997 8.03448 8.78338C8.11477 8.43605 8.26719 8.12141 8.4572 7.82311C8.92712 7.08636 9.51799 6.46137 10.2051 5.92709C11.2234 5.13538 12.3438 4.52571 13.5558 4.0846C14.1781 3.85699 14.8343 3.73611 15.4968 3.72705Z" fill="white"/>
<path d="M7.11885 18.6373C7.11538 18.406 7.08902 18.198 6.9554 18.0176C6.89033 17.9305 6.80025 17.8652 6.69715 17.8305C6.43154 17.7353 6.16103 17.7465 5.89727 17.828C5.6858 17.8934 5.4819 17.9825 5.27493 18.062C5.23407 18.0771 5.19688 18.0965 5.14744 18.1186C5.04998 17.8769 4.95416 17.6423 4.85384 17.3971C4.99911 17.3283 5.136 17.258 5.27718 17.1977C5.60244 17.0586 5.93976 16.9632 6.29445 16.9417C6.64914 16.9203 6.99912 16.9391 7.32194 17.1111C7.68704 17.3044 7.95061 17.5835 8.06094 17.9896C8.07685 18.0428 8.08639 18.0977 8.08934 18.1531C8.10343 18.6804 8.12243 19.2077 8.12468 19.7351C8.12611 20.0955 8.10241 20.4561 8.09179 20.8167C8.08989 20.8661 8.0693 20.913 8.03417 20.9479C7.78184 21.2257 7.47313 21.4178 7.12335 21.5467C6.74827 21.6836 6.34883 21.741 5.95039 21.7153C5.58262 21.6948 5.26512 21.5443 4.99666 21.2944C4.72819 21.0445 4.54063 20.7427 4.48833 20.3729C4.41682 19.8665 4.5629 19.427 4.92699 19.0653C5.16113 18.8328 5.44962 18.7127 5.77468 18.6702C6.13427 18.6234 6.49508 18.6359 6.8559 18.6369L7.11885 18.6373ZM7.07165 19.4607C7.05046 19.4565 7.02904 19.4536 7.0075 19.4519C6.88491 19.4494 6.76089 19.4452 6.63769 19.447C6.48998 19.4492 6.34165 19.4499 6.19475 19.4638C6.04294 19.4783 5.89563 19.5226 5.77795 19.6239C5.58262 19.7923 5.5246 20.0121 5.5722 20.26C5.63146 20.5664 5.80267 20.7805 6.10791 20.8717C6.2653 20.9187 6.43195 20.9258 6.59275 20.8921C6.7422 20.8647 6.8816 20.7979 6.99647 20.6984C7.01591 20.6833 7.0319 20.6643 7.04336 20.6425C7.05481 20.6207 7.06146 20.5967 7.06287 20.5721C7.06757 20.4645 7.08146 20.357 7.08228 20.2493C7.08391 20.0027 7.08024 19.7561 7.07819 19.5095C7.07697 19.4931 7.07478 19.4768 7.07165 19.4607Z" fill="white"/>
<path d="M19.4074 19.4401C18.5309 19.4401 17.6707 19.4213 16.7985 19.4441C16.803 19.5054 16.8056 19.5635 16.8112 19.6201C16.8336 19.8515 16.8835 20.0765 16.9814 20.2888C17.0574 20.4619 17.1756 20.6133 17.325 20.7293C17.562 20.9093 17.8325 20.9387 18.1163 20.9021C18.3509 20.8719 18.5693 20.7861 18.7871 20.6996C18.887 20.6602 18.9861 20.6179 19.0935 20.574C19.1957 20.7877 19.2958 20.9977 19.4 21.2139C19.3808 21.2278 19.3628 21.2433 19.3428 21.2548C18.9178 21.5069 18.4614 21.6693 17.9684 21.7122C17.5189 21.7512 17.0898 21.6775 16.7016 21.4288C16.4373 21.2595 16.2522 21.0202 16.0973 20.7526C15.9066 20.4196 15.7911 20.0488 15.7589 19.6664C15.6941 18.9692 15.8422 18.32 16.2031 17.7189C16.4548 17.3011 16.8306 17.0741 17.3009 16.9959C17.7332 16.9199 18.1785 16.994 18.5629 17.2059C18.7783 17.3226 18.9282 17.5062 19.0519 17.7122C19.2153 17.9837 19.3013 18.283 19.3426 18.5932C19.3761 18.8433 19.3867 19.0964 19.4067 19.3491C19.4092 19.3751 19.4074 19.4021 19.4074 19.4401ZM18.3449 18.6463C18.2941 18.4132 18.2593 18.175 18.1067 17.9774C18.0302 17.8792 17.9227 17.8098 17.8017 17.7804C17.4799 17.6952 17.1564 17.8436 17.0181 18.1482C16.9687 18.2567 16.9397 18.3746 16.9037 18.4888C16.8876 18.5405 16.8772 18.5942 16.8643 18.6463C16.9507 18.6692 18.2565 18.6702 18.3453 18.6469L18.3449 18.6463Z" fill="white"/>
<path d="M13.6564 15.8786L14.7022 15.7168V17.0013C14.9343 17.0152 15.1554 17.0001 15.3777 17.024V17.8153C15.1529 17.819 14.9329 17.8122 14.7035 17.8261C14.7035 17.8707 14.7035 17.904 14.7035 17.9373C14.7015 18.6989 14.6999 19.4607 14.6985 20.2225C14.6985 20.3424 14.7081 20.4626 14.719 20.5821C14.7361 20.766 14.8381 20.8826 15.0163 20.9274C15.1145 20.9523 15.2155 20.9664 15.3152 20.9854L15.4153 21.0058V21.6774C15.404 21.683 15.3921 21.687 15.3797 21.6893C15.0829 21.7025 14.7872 21.6948 14.5002 21.6075C14.2198 21.523 13.9861 21.3697 13.8276 21.1172C13.7375 20.9742 13.6917 20.8134 13.6719 20.6473C13.6599 20.5432 13.654 20.4386 13.6543 20.3339C13.6543 18.8873 13.6551 17.4409 13.6568 15.9947L13.6564 15.8786Z" fill="white"/>
<path d="M19.9837 15.8799L20.995 15.7046V15.8441C20.995 17.1579 20.9956 18.4716 20.9967 19.7853C20.9967 20.0258 20.9987 20.2663 21.0006 20.507C21.0022 20.7444 21.0888 20.8653 21.3156 20.936C21.3927 20.9573 21.4709 20.9741 21.5499 20.9863C21.5982 20.9953 21.647 20.9996 21.7056 21.0067V21.6928C21.7002 21.6973 21.6937 21.7005 21.6868 21.702C21.3996 21.7136 21.1135 21.7089 20.8342 21.6272C20.665 21.5785 20.5074 21.4959 20.3711 21.3845C20.1171 21.1767 20.0137 20.8982 19.9872 20.5842C19.9794 20.4922 19.9804 20.3993 19.9806 20.3069C19.9806 18.8698 19.9816 17.4328 19.9837 15.9959V15.8799Z" fill="white"/>
<path d="M11.6236 21.6322H10.602C10.6008 21.5895 10.5988 21.5505 10.5985 21.5119C10.5975 20.8981 10.5966 20.2844 10.5959 19.6706C10.5947 19.1803 10.5916 18.6899 10.5918 18.1996C10.5921 18.1106 10.599 18.0219 10.6122 17.9339C10.6274 17.8336 10.6799 17.7501 10.7528 17.6796C11.1541 17.2889 11.6348 17.0548 12.183 16.9539C12.5265 16.8909 12.8786 16.8904 13.2223 16.9524C13.2405 16.9557 13.2587 16.9598 13.2765 16.9643C13.2853 16.9665 13.2936 16.9708 13.3106 16.9774C13.1945 17.2724 13.0532 17.5543 12.9199 17.833C12.7608 17.833 12.61 17.8283 12.4596 17.834C12.1999 17.8427 11.945 17.9062 11.7116 18.0204C11.6454 18.0529 11.6207 18.0933 11.6209 18.1695C11.6238 19.2864 11.6245 20.4033 11.623 21.5202L11.6236 21.6322Z" fill="white"/>
<path d="M9.84983 17.0449C9.86066 18.5756 9.84881 20.0973 9.85862 21.6285H8.85892C8.85647 21.5915 8.85156 21.5529 8.85156 21.5143C8.85156 20.5519 8.85156 19.5895 8.85156 18.6269C8.85156 18.1858 8.85524 17.7447 8.85708 17.3036C8.85708 17.2701 8.85708 17.2366 8.85708 17.1945L9.84983 17.0449Z" fill="white"/>
<path d="M9.30699 16.5943C8.81889 16.5931 8.51324 16.1073 8.71571 15.6486C8.84014 15.3672 9.05385 15.2604 9.36216 15.2622C9.77528 15.2657 10.0815 15.6766 9.98306 16.0781C9.9044 16.3988 9.64697 16.5952 9.30699 16.5943Z" fill="white"/>
</svg>
