<svg width="24" height="24" viewBox="0 0 24 24" fill="none" xmlns="http://www.w3.org/2000/svg">
<path d="M21 16.42V19.9561C21 20.4811 20.5941 20.9167 20.0705 20.9537C19.6331 20.9846 19.2763 21 19 21C10.1634 21 3 13.8366 3 5C3 4.72371 3.01545 4.36687 3.04635 3.9295C3.08337 3.40588 3.51894 3 4.04386 3H7.5801C7.83678 3 8.05176 3.19442 8.07753 3.4498C8.10067 3.67907 8.12218 3.86314 8.14207 4.00202C8.34435 5.41472 8.75753 6.75936 9.3487 8.00303C9.44359 8.20265 9.38171 8.44159 9.20185 8.57006L7.04355 10.1118C8.35752 13.1811 10.8189 15.6425 13.8882 16.9565L15.4271 14.8019C15.5572 14.6199 15.799 14.5573 16.001 14.6532C17.2446 15.2439 18.5891 15.6566 20.0016 15.8584C20.1396 15.8782 20.3225 15.8995 20.5502 15.9225C20.8056 15.9483 21 16.1633 21 16.42Z" fill="#146EF5"/>
<path d="M13.0517 4L14.0177 4.261C15.1991 4.58068 16.276 5.2045 17.141 6.07024C18.0061 6.93598 18.629 8.01338 18.9477 9.195L19.2077 10.16L17.2777 10.681L17.0167 9.716C16.789 8.87197 16.3439 8.10241 15.7259 7.48407C15.1079 6.86573 14.3386 6.42023 13.4947 6.192L12.5297 5.93L13.0517 4ZM12.1377 7.378L13.1037 7.639C13.6944 7.79884 14.2329 8.11075 14.6654 8.54362C15.0979 8.97649 15.4094 9.51519 15.5687 10.106L15.8287 11.071L13.8987 11.592L13.6377 10.627C13.5693 10.3738 13.4357 10.1429 13.2503 9.95745C13.0648 9.77198 12.8339 9.63839 12.5807 9.57L11.6157 9.309L12.1377 7.378Z" fill="#F7A74A" fill-opacity="0.960784"/>
</svg>
