<svg width="24" height="24" viewBox="0 0 24 24" fill="none" xmlns="http://www.w3.org/2000/svg">
<path d="M21 17.4195V20.9556C21 21.4806 20.5941 21.9162 20.0705 21.9532C19.6331 21.9841 19.2763 21.9995 19 21.9995C10.1634 21.9995 3 14.8361 3 5.99951C3 5.72322 3.01545 5.36638 3.04635 4.92901C3.08337 4.40539 3.51894 3.99951 4.04386 3.99951H7.5801C7.83678 3.99951 8.05176 4.19393 8.07753 4.44931C8.10067 4.67858 8.12218 4.86265 8.14207 5.00153C8.34435 6.41423 8.75753 7.75887 9.3487 9.00254C9.44359 9.20216 9.38171 9.4411 9.20185 9.56957L7.04355 11.1113C8.35752 14.1806 10.8189 16.642 13.8882 17.956L15.4271 15.8014C15.5572 15.6194 15.799 15.5568 16.001 15.6527C17.2446 16.2434 18.5891 16.6561 20.0016 16.8579C20.1396 16.8777 20.3225 16.899 20.5502 16.922C20.8056 16.9478 21 17.1628 21 17.4195Z" fill="#146EF5"/>
<path fill-rule="evenodd" clip-rule="evenodd" d="M13.4648 11.7048L16.1763 14.2668V12.5588C20.0205 12.5588 22.3102 8.51661 20.1892 5.48779L18.8757 6.72893C19.8638 8.61909 18.4057 10.8509 16.1763 10.8509V9.14287L13.4648 11.7048Z" fill="#F6A74A"/>
<path fill-rule="evenodd" clip-rule="evenodd" d="M19.5352 4.56176L16.8237 1.99978V3.70776C12.9795 3.70776 10.6898 7.74999 12.8108 10.7788L14.1243 9.53767C13.1362 7.64751 14.5943 5.41575 16.8237 5.41575V7.12373L19.5352 4.56176Z" fill="#146EF5"/>
</svg>
