<svg width="10" height="13" viewBox="0 0 10 13" fill="none" xmlns="http://www.w3.org/2000/svg">
<path d="M5.00015 12.4141L9.70715 7.70706C9.8 7.61422 9.87364 7.504 9.92389 7.38269C9.97414 7.26138 10 7.13136 10 7.00006C10 6.86876 9.97414 6.73874 9.92389 6.61744C9.87364 6.49613 9.8 6.38591 9.70715 6.29306C9.61431 6.20022 9.50408 6.12657 9.38278 6.07632C9.26147 6.02607 9.13145 6.00021 9.00015 6.00021C8.86885 6.00021 8.73883 6.02607 8.61753 6.07632C8.49622 6.12657 8.386 6.20022 8.29315 6.29306L6.00015 8.58606L6.00015 1.00006C6.00015 0.734846 5.89479 0.480492 5.70726 0.292955C5.51972 0.105419 5.26537 6.29425e-05 5.00015 6.29425e-05C4.73493 6.29425e-05 4.48058 0.105419 4.29304 0.292955C4.10551 0.480492 4.00015 0.734846 4.00015 1.00006L4.00015 8.58606L1.70715 6.29306C1.6145 6.19988 1.50434 6.12593 1.383 6.07547C1.26167 6.02501 1.13156 5.99903 1.00015 5.99903C0.868743 5.99903 0.738631 6.02501 0.617298 6.07547C0.495965 6.12593 0.385803 6.19988 0.29315 6.29306C0.105679 6.48059 0.000364304 6.7349 0.000364304 7.00006C0.000364304 7.26523 0.105679 7.51953 0.29315 7.70706L5.00015 12.4141Z" fill="#146EF5"/>
</svg>
