<svg width="10" height="13" viewBox="0 0 10 13" fill="none" xmlns="http://www.w3.org/2000/svg">
<path d="M5.00015 12.9995L9.70715 8.29251C9.8 8.19967 9.87364 8.08944 9.92389 7.96814C9.97414 7.84683 10 7.71681 10 7.58551C10 7.45421 9.97414 7.32419 9.92389 7.20289C9.87364 7.08158 9.8 6.97136 9.70715 6.87851C9.61431 6.78567 9.50408 6.71202 9.38278 6.66177C9.26147 6.61152 9.13145 6.58566 9.00015 6.58566C8.86885 6.58566 8.73883 6.61152 8.61753 6.66177C8.49622 6.71202 8.386 6.78567 8.29315 6.87851L6.00015 9.17151L6.00015 1.58551C6.00015 1.3203 5.89479 1.06594 5.70726 0.878405C5.51972 0.690868 5.26537 0.585512 5.00015 0.585512C4.73493 0.585512 4.48058 0.690868 4.29304 0.878405C4.10551 1.06594 4.00015 1.3203 4.00015 1.58551L4.00015 9.17151L1.70715 6.87851C1.6145 6.78533 1.50434 6.71138 1.383 6.66092C1.26167 6.61045 1.13156 6.58448 1.00015 6.58448C0.868743 6.58448 0.738631 6.61045 0.617298 6.66092C0.495965 6.71138 0.385803 6.78533 0.29315 6.87851C0.105679 7.06604 0.000364304 7.32035 0.000364304 7.58551C0.000364304 7.85068 0.105679 8.10498 0.29315 8.29251L5.00015 12.9995Z" fill="white"/>
</svg>
