<svg width="24" height="24" viewBox="0 0 24 24" fill="none" xmlns="http://www.w3.org/2000/svg">
<path d="M7.42434 1.83C7.51103 1.587 7.67079 1.37677 7.8817 1.22817C8.09261 1.07956 8.34434 0.999861 8.60234 1H15.0553C15.2534 0.999992 15.4486 1.04704 15.6249 1.13727C15.8012 1.2275 15.9535 1.35832 16.0693 1.51897C16.1852 1.67962 16.2612 1.86548 16.2911 2.06125C16.321 2.25703 16.3039 2.4571 16.2413 2.645L14.7903 7H18.7483C19.8523 7 20.4143 8.327 19.6463 9.12L18.6883 10.108C17.6336 9.91149 16.5467 9.9791 15.5244 10.3048C14.5022 10.6305 13.5765 11.2042 12.8299 11.9747C12.0832 12.7452 11.539 13.6885 11.2456 14.7204C10.9522 15.7524 10.9188 16.841 11.1483 17.889L8.58534 20.536C7.53134 21.624 5.71334 20.642 6.04434 19.164L7.31434 13.496L5.74434 13.49C5.46469 13.4888 5.18941 13.4206 4.94155 13.2911C4.69369 13.1616 4.48047 12.9745 4.31977 12.7457C4.15906 12.5168 4.05555 12.2528 4.01789 11.9757C3.98024 11.6985 4.00954 11.4165 4.10334 11.153L7.42434 1.83Z" fill="#146EF5"/>
<path d="M14.0436 12.5605C14.1164 12.8128 14.1376 13.0772 14.1058 13.3379C14.074 13.5985 13.99 13.8501 13.8587 14.0775C13.7274 14.305 13.5515 14.5036 13.3417 14.6614C13.1318 14.8193 12.8923 14.9332 12.6374 14.9963L12.0674 15.1378C11.9756 15.7222 11.9776 16.3175 12.0733 16.9012L12.6003 17.0281C12.8575 17.0901 13.0994 17.2037 13.3114 17.362C13.5234 17.5204 13.7009 17.7202 13.8333 17.9493C13.9656 18.1784 14.05 18.432 14.0813 18.6947C14.1126 18.9575 14.0901 19.2238 14.0153 19.4776L13.8328 20.0934C14.2622 20.4701 14.7502 20.7765 15.282 20.9932L15.7631 20.4867C15.9455 20.2949 16.1649 20.1422 16.4081 20.0378C16.6512 19.9335 16.9131 19.8797 17.1777 19.8797C17.4423 19.8797 17.7042 19.9335 17.9473 20.0378C18.1905 20.1422 18.4099 20.2949 18.5923 20.4867L19.0792 21C19.6071 20.7847 20.0958 20.4837 20.5255 20.109L20.3323 19.4395C20.2595 19.1872 20.2384 18.9227 20.2702 18.662C20.302 18.4012 20.3862 18.1496 20.5176 17.9222C20.649 17.6947 20.8249 17.4962 21.0349 17.3383C21.2449 17.1805 21.4845 17.0667 21.7395 17.0037L22.3085 16.8622C22.4003 16.2778 22.3983 15.6825 22.3026 15.0988L21.7756 14.9719C21.5185 14.9098 21.2767 14.7961 21.0648 14.6377C20.853 14.4793 20.6755 14.2795 20.5433 14.0504C20.411 13.8213 20.3267 13.5677 20.2955 13.3051C20.2642 13.0424 20.2867 12.7761 20.3616 12.5224L20.5431 11.9066C20.1134 11.5286 19.624 11.2246 19.0948 11.0068L18.6137 11.5123C18.4314 11.7043 18.2119 11.8571 17.9687 11.9615C17.7254 12.066 17.4634 12.1198 17.1987 12.1198C16.9339 12.1198 16.672 12.066 16.4287 11.9615C16.1855 11.8571 15.966 11.7043 15.7836 11.5123L15.2976 11C14.7668 11.2147 14.2788 11.5172 13.8504 11.891L14.0436 12.5605ZM17.1889 17.4634C16.4082 17.4634 15.7739 16.8085 15.7739 15.9995C15.7739 15.1915 16.4082 14.5357 17.1889 14.5357C17.9696 14.5357 18.604 15.1915 18.604 15.9995C18.604 16.8085 17.9696 17.4634 17.1889 17.4634Z" fill="#F6A74A"/>
</svg>
