<svg width="20" height="18" viewBox="0 0 20 18" fill="none" xmlns="http://www.w3.org/2000/svg">
<g clip-path="url(#clip0_190_223)">
<path fill-rule="evenodd" clip-rule="evenodd" d="M3.00732 8.24548V15.9805C3.00732 16.5106 3.51776 17.021 3.89077 17.394C4.26378 17.7671 4.77421 17.983 5.30428 17.983H17.2995C17.8296 17.983 18.34 17.7671 18.713 17.394C19.086 17.021 19.302 16.5106 19.302 15.9805V7.99027C19.302 7.4602 19.086 6.94977 18.713 6.57676C18.34 6.20375 17.8296 5.98779 17.2995 5.98779H5.30428V8.24548H3.00732ZM8.22946 5.00619L15.8075 4.59391V5.47736H17.2995V3.98532C17.2995 2.88592 16.4161 2.12027 15.3167 2.27733L8.20983 3.00371L8.22946 5.00619ZM15.2185 12.8787C15.3952 12.9572 15.5915 12.9965 15.7878 12.9965C16.1805 12.9965 16.5731 12.8394 16.848 12.5645C17.1228 12.2897 17.2799 11.8971 17.2799 11.5044C17.2799 11.1118 17.1228 10.7191 16.848 10.4443C16.5731 10.1694 16.1805 10.0124 15.7878 10.0124C15.5915 10.0124 15.3952 10.0516 15.2185 10.1302C15.0418 10.2087 14.8651 10.3069 14.7277 10.4639C14.5903 10.6013 14.4725 10.778 14.3939 10.9547C14.3154 11.1314 14.2762 11.3277 14.2762 11.524C14.2762 11.7204 14.3154 11.9167 14.3939 12.0934C14.4725 12.2701 14.5706 12.4468 14.7277 12.5842C14.8651 12.7216 15.0418 12.8394 15.2185 12.9179V12.8787Z" fill="#146EF5"/>
<path d="M3.00713 3.00371V0H5.0096V3.00371H7.99368V5.00619H5.0096V7.99027H3.00713V5.00619H0.00341797V3.00371H3.00713Z" fill="#F6A74A"/>
</g>
<defs>
<clipPath id="clip0_190_223">
<rect width="19.305" height="17.983" fill="white"/>
</clipPath>
</defs>
</svg>
