<svg width="24" height="24" viewBox="0 0 24 24" fill="none" xmlns="http://www.w3.org/2000/svg">
<path d="M17.6654 19.0353C16.1715 20.0015 14.3998 20.561 12.5 20.561C7.76507 20.561 3.82588 17.086 3 12.5C3.38346 10.3707 4.43807 8.4809 5.93188 7.06724L3.18618 4.26667L4.42803 3L21.8138 20.7333L20.572 22L17.6654 19.0353ZM7.17452 8.33473C6.00762 9.41888 5.15679 10.8583 4.79236 12.5C5.59797 16.1292 8.7806 18.7697 12.5 18.7697C13.9045 18.7697 15.2325 18.3932 16.3848 17.7291L14.6037 15.9124C13.9946 16.3039 13.2732 16.5305 12.5 16.5305C10.3176 16.5305 8.54847 14.7259 8.54847 12.5C8.54847 11.7113 8.77056 10.9755 9.15442 10.3542L7.17452 8.33473ZM13.3023 14.585L10.4559 11.6817C10.3583 11.9352 10.3047 12.2112 10.3047 12.5C10.3047 13.7367 11.2876 14.7392 12.5 14.7392C12.7831 14.7392 13.0538 14.6845 13.3023 14.585ZM20.2331 16.6132L18.9767 15.3317C19.5527 14.4943 19.9773 13.5376 20.2076 12.5C19.402 8.87076 16.2194 6.23032 12.5 6.23032C11.7572 6.23032 11.0359 6.33562 10.3506 6.53307L8.96488 5.11968C10.0597 4.68031 11.2522 4.43899 12.5 4.43899C17.2349 4.43899 21.1741 7.91396 22 12.5C21.7259 14.0223 21.1086 15.4222 20.2331 16.6132ZM12.2564 8.47702C12.337 8.47202 12.4182 8.46949 12.5 8.46949C14.6823 8.46949 16.4515 10.274 16.4515 12.5C16.4515 12.5834 16.449 12.6663 16.4442 12.7484L12.2564 8.47702Z" fill="black"/>
</svg>
