<svg width="24" height="24" viewBox="0 0 24 24" fill="none" xmlns="http://www.w3.org/2000/svg">
<path d="M12 4C16.9841 4 21.1307 7.66422 22 12.5C21.1307 17.3357 16.9841 21 12 21C7.01587 21 2.86934 17.3357 2 12.5C2.86934 7.66422 7.01587 4 12 4ZM12 19.1111C15.9151 19.1111 19.2653 16.3269 20.1133 12.5C19.2653 8.67314 15.9151 5.88889 12 5.88889C8.08484 5.88889 4.73471 8.67314 3.88669 12.5C4.73471 16.3269 8.08484 19.1111 12 19.1111ZM12 16.75C9.70277 16.75 7.8405 14.8472 7.8405 12.5C7.8405 10.1528 9.70277 8.25 12 8.25C14.2972 8.25 16.1595 10.1528 16.1595 12.5C16.1595 14.8472 14.2972 16.75 12 16.75ZM12 14.8611C13.2763 14.8611 14.3109 13.804 14.3109 12.5C14.3109 11.196 13.2763 10.1389 12 10.1389C10.7238 10.1389 9.68916 11.196 9.68916 12.5C9.68916 13.804 10.7238 14.8611 12 14.8611Z" fill="black"/>
</svg>
