<svg width="24" height="24" viewBox="0 0 24 24" fill="none" xmlns="http://www.w3.org/2000/svg">
<path d="M12 2C17.523 2 22 6.477 22 12C22 17.523 17.523 22 12 22C6.477 22 2 17.523 2 12C2 6.477 6.477 2 12 2ZM13.67 16H10.33L8.95 17.897L9.504 19.603C10.3097 19.8668 11.1522 20.0008 12 20C12.871 20 13.71 19.86 14.496 19.603L15.049 17.897L13.67 16ZM5.294 10.872L4.002 11.81L4 12C4 13.73 4.549 15.331 5.482 16.64H7.392L8.715 14.82L7.687 11.65L5.294 10.872ZM18.706 10.872L16.313 11.65L15.285 14.82L16.607 16.64H18.517C19.4841 15.2863 20.0027 13.6636 20 12L19.997 11.809L18.706 10.872ZM14.29 4.333L13 5.273V7.79L15.694 9.747L17.934 9.02L18.488 7.317C17.4564 5.88712 15.9813 4.8381 14.292 4.333M9.71 4.333C8.02058 4.83836 6.54546 5.88774 5.514 7.318L6.068 9.02L8.307 9.747L11 7.79V5.273L9.71 4.333Z" fill="#146EF5"/>
<path d="M11.933 8.00211C11.7369 8.01444 11.5485 8.08065 11.3895 8.19304L8.42879 10.2864L8.32498 10.3692C8.18221 10.5005 8.08066 10.6684 8.03215 10.8536C7.98363 11.0388 7.99014 11.2336 8.05091 11.4153L9.18248 14.8022L9.22608 14.9123C9.3091 15.0878 9.44213 15.2365 9.60939 15.3406C9.77666 15.4448 9.97113 15.5001 10.1697 15.5H13.8302L13.9517 15.4929C14.1488 15.4703 14.3351 15.3933 14.4885 15.2709C14.642 15.1484 14.7561 14.9858 14.8175 14.8022L15.949 11.4153L15.9823 11.2891C16.0184 11.1014 15.9991 10.9075 15.9265 10.73C15.8539 10.5525 15.7311 10.3987 15.5722 10.2864L12.6104 8.19304L12.4972 8.12336C12.3248 8.03182 12.1291 7.98977 11.933 8.00211Z" fill="#F6A74A"/>
</svg>
