<svg width="26" height="26" viewBox="0 0 26 26" fill="none" xmlns="http://www.w3.org/2000/svg">
<path d="M13.062 25.9957C20.2102 25.9957 26.0049 20.2009 26.0049 13.0528C26.0049 5.9046 20.2102 0.109863 13.062 0.109863C5.91387 0.109863 0.119141 5.9046 0.119141 13.0528C0.119141 20.2009 5.91387 25.9957 13.062 25.9957Z" fill="#50B651"/>
<path opacity="0.663" fill-rule="evenodd" clip-rule="evenodd" d="M25.9654 13.0163C25.9654 20.187 20.1525 25.9998 12.9835 25.9998C5.81446 25.9998 0 20.187 0 13.0163C0 9.8443 0.0889083 9.37271 1.33749 7.56684C1.33749 7.56684 1.27306 9.60657 2.76872 10.8204C3.69871 11.5745 4.66929 11.0301 6.44584 10.2119C8.36767 9.326 9.93001 8.75454 11.149 8.90529C12.9851 9.13272 18.6446 12.5315 21.5982 11.8547C23.9578 11.3152 23.7088 5.75195 23.7088 5.75195C26.2859 8.26844 25.9654 9.96929 25.9654 13.0163Z" fill="url(#paint0_linear_211_192)"/>
<path opacity="0.586" fill-rule="evenodd" clip-rule="evenodd" d="M18.5547 22.5529C23.2503 18.136 24.0308 13.076 20.8963 7.37275C20.9121 7.38435 21.1061 6.71518 21.478 5.36523C23.1462 7.38542 24.0333 9.87893 24.1391 12.8458C24.1383 16.6886 22.2768 19.9243 18.5547 22.5529Z" fill="url(#paint1_linear_211_192)"/>
<path opacity="0.744" fill-rule="evenodd" clip-rule="evenodd" d="M16.3276 5.39202C14.0611 4.13764 11.4609 1.61439 11.8065 1.08448C12.1522 0.554578 16.6385 0.645741 18.9053 1.90012C21.1721 3.1545 23.1014 6.91731 22.7561 7.44721C22.4107 7.97712 18.5941 6.6464 16.3276 5.39202Z" fill="url(#paint2_radial_211_192)"/>
<path fill-rule="evenodd" clip-rule="evenodd" d="M18.303 16.2401C16.4228 16.2401 14.8984 14.6723 14.8984 12.7385C14.8984 10.8048 16.4228 9.2373 18.303 9.2373C20.1833 9.2373 21.708 10.8048 21.708 12.7385C21.708 14.6723 20.1836 16.2401 18.303 16.2401ZM18.3272 15.1294C19.5007 15.1294 20.4533 14.059 20.4533 12.7385C20.4533 11.4181 19.5007 10.3487 18.3272 10.3487C17.1537 10.3487 16.2011 11.4191 16.2011 12.7392C16.2011 14.0593 17.1537 15.1294 18.3272 15.1294Z" fill="white"/>
<path fill-rule="evenodd" clip-rule="evenodd" d="M11.2773 6.41797H13.7307V16.2011H12.3839V7.49099H11.2773V6.41797Z" fill="white"/>
<path fill-rule="evenodd" clip-rule="evenodd" d="M9.4486 9.33672H10.722V17.5066C10.722 18.2511 9.93889 19.0264 9.17576 19.3601C8.81497 19.5178 8.14924 19.6114 7.17855 19.641V18.8283C8.12798 18.7224 8.7688 18.5112 9.10103 18.1947C9.29273 17.9283 9.41255 17.617 9.44893 17.2908V14.8906C9.10854 15.6128 8.67989 16.0916 8.16298 16.327C7.62567 16.6169 6.53203 16.5692 6.08556 16.327C5.63908 16.0847 4.98419 15.4469 4.68397 14.4969C4.60086 14.2347 4.39405 13.5212 4.41563 12.7652C4.43496 12.0452 4.67334 11.2834 4.87145 10.9702C5.21162 10.4355 5.74796 9.7658 6.56038 9.48587C6.95724 9.34907 7.69278 9.29989 8.76698 9.33833V10.1466C7.96874 10.0927 7.47072 10.1196 7.27293 10.2274C6.97625 10.3885 6.30654 10.5872 6.08556 12.0468C5.86458 13.5064 6.092 14.7008 6.79264 15.0748C7.03262 15.2037 7.45719 15.3561 7.84955 15.2217C8.60333 14.964 9.31267 14.045 9.36678 13.4223C9.42133 12.7905 9.4486 11.4286 9.4486 9.33672Z" fill="white"/>
<path fill-rule="evenodd" clip-rule="evenodd" d="M25.5584 15.6151C24.3559 21.4054 19.225 25.7561 13.0784 25.7561C6.0389 25.7561 0.332031 20.0492 0.332031 13.0097C0.332031 8.63641 2.53444 4.7776 5.8904 2.48242C3.16356 4.74378 1.42728 8.15998 1.42728 11.9801C1.42728 18.7942 6.95118 24.3177 13.7649 24.3177C19.3139 24.3177 24.0067 20.6548 25.5584 15.6151Z" fill="url(#paint3_radial_211_192)"/>
<defs>
<linearGradient id="paint0_linear_211_192" x1="12.4819" y1="7.52496" x2="14.1461" y2="22.5533" gradientUnits="userSpaceOnUse">
<stop stop-color="#123214"/>
<stop offset="0.46" stop-color="#3E7C37"/>
<stop offset="0.91" stop-color="#5FBB46"/>
</linearGradient>
<linearGradient id="paint1_linear_211_192" x1="22.0957" y1="6.54787" x2="22.0957" y2="18.7004" gradientUnits="userSpaceOnUse">
<stop stop-color="white" stop-opacity="0"/>
<stop offset="0.64" stop-color="white" stop-opacity="0.43"/>
<stop offset="1" stop-color="white" stop-opacity="0.42"/>
</linearGradient>
<radialGradient id="paint2_radial_211_192" cx="0" cy="0" r="1" gradientUnits="userSpaceOnUse" gradientTransform="translate(17.5571 4.35099) rotate(26.7606) scale(6.39569 2.66369)">
<stop offset="0.13" stop-color="white"/>
<stop offset="0.29" stop-color="white" stop-opacity="0.69"/>
<stop offset="0.45" stop-color="white" stop-opacity="0.4"/>
<stop offset="0.59" stop-color="white" stop-opacity="0.18"/>
<stop offset="0.69" stop-color="white" stop-opacity="0.05"/>
<stop offset="0.74" stop-color="white" stop-opacity="0"/>
</radialGradient>
<radialGradient id="paint3_radial_211_192" cx="0" cy="0" r="1" gradientUnits="userSpaceOnUse" gradientTransform="translate(15.2641 10.0729) rotate(39.84) scale(14.3326 15.6225)">
<stop offset="0.86" stop-opacity="0"/>
<stop offset="0.98" stop-opacity="0.47"/>
<stop offset="1"/>
</radialGradient>
</defs>
</svg>
