<svg width="18" height="22" viewBox="0 0 18 22" fill="none" xmlns="http://www.w3.org/2000/svg">
<g clip-path="url(#clip0_185_105)">
<path fill-rule="evenodd" clip-rule="evenodd" d="M17.0006 11.0009V16.001C17.0006 17.6572 15.6569 19.0009 14.0007 19.0009H10.0012V14.5515H15.8477V11.0009H17.0016H17.0006ZM2.07437 6.58113H7.99997V8.99864H2.07437V6.58113ZM8.00096 11.0009V19.0009H4.00145C2.34529 19.0009 1.00157 17.6572 1.00157 16V10.9999H2.07536V14.5505H8.00096V10.9999H8.00195L8.00096 11.0009ZM6.00071 0.000976562C6.0017 0.000976562 6.0017 0.000976562 6.0017 0.000976562C7.14964 0.000976562 8.24222 0.494365 9.00158 1.35557C9.76094 0.495354 10.8535 0.000976562 12.0015 0.000976562H12.5018C13.3303 0.000976562 14.0017 0.67234 14.0017 1.50092V2.00123C14.0017 2.72994 13.8069 3.41317 13.4668 4.00148H16.002C17.1064 4.00148 18.0022 4.89729 18.0022 6.00172V8.00197C18.0022 8.36583 17.9053 8.70794 17.7343 9.0016H10.0022V8.99864H15.8487V6.58113H10.0022V6.00172C10.0022 5.45 9.55429 5.00209 9.00257 5.00209C8.45084 5.00209 8.00294 5.45 8.00294 6.00172V9.0016H0.270882C0.0958726 8.69806 0.00292969 8.35199 0.00292969 8.00197V6.00172C0.00292969 4.89729 0.898741 4.00148 2.00318 4.00148H4.53736C4.18832 3.39438 4.00244 2.70423 4.00244 2.0032C4.00244 2.0032 4.00244 2.00221 4.00244 2.00123V1.50092C4.00244 0.67234 4.6738 0.000976562 5.50238 0.000976562H6.0017H6.00071ZM6.00071 2.00123C6.00071 3.10566 6.89652 4.00148 8.00096 4.00148C8.00096 2.89704 7.10515 2.00123 6.00071 2.00123ZM12.0015 2.00123C10.897 2.00123 10.0012 2.89704 10.0012 4.00148C11.1056 4.00148 12.0015 3.10566 12.0015 2.00123Z" fill="#146EF5"/>
<path fill-rule="evenodd" clip-rule="evenodd" d="M9.95979 11.9942C9.87377 12.1052 9.87377 12.169 9.86267 12.2439V13.326V13.4231C9.86267 13.8227 10.1873 14.1473 10.5869 14.1473C10.7478 14.1473 10.8949 14.0946 11.017 14.0058C11.1945 13.8727 11.3111 13.6618 11.3111 13.4231V12.4714C11.3749 12.477 11.4359 12.477 11.4998 12.477C11.8272 12.477 12.1407 12.4187 12.4265 12.316C13.3477 11.9803 13.9998 11.159 13.9998 10.1989C13.9998 8.93921 12.8816 7.91812 11.5025 7.91812C11.4387 7.91812 11.3749 7.9209 11.3138 7.92367C11.3111 7.92367 11.3083 7.92367 11.3055 7.92367C11.3943 7.6129 11.2667 7.26884 10.9753 7.09958C10.6313 6.89703 10.1845 7.01357 9.98476 7.35763L7.73724 11.1895L7.10738 12.2633C6.99085 12.4631 6.97975 12.6962 7.06021 12.896L7.11848 12.9986C7.25167 13.2261 7.49029 13.3538 7.73724 13.3566C7.98419 13.3538 8.22282 13.2261 8.356 12.9986L8.41427 12.896L10.5425 9.26941C10.7506 9.09182 11.017 8.96974 11.3138 8.93367C11.3749 8.92534 11.4387 8.92257 11.5025 8.92257C12.2767 8.92257 12.9038 9.49416 12.9038 10.1989C12.9038 10.9037 12.2767 11.4753 11.5025 11.4753C11.4387 11.4753 11.3749 11.4725 11.3138 11.4642V11.467C11.2445 11.4587 11.1751 11.4531 11.1057 11.4531C10.634 11.4531 10.2178 11.6668 9.96256 11.9914L9.95979 11.9942Z" fill="#F6A74A"/>
<path fill-rule="evenodd" clip-rule="evenodd" d="M7.5988 11.1895L5.35128 7.35763C5.14873 7.01357 4.70478 6.89703 4.36071 7.09958C4.22475 7.18005 4.12486 7.29659 4.06659 7.43255C4.0222 7.52411 4 7.62678 4 7.73776V13.4259C4 13.8255 4.32464 14.1501 4.7242 14.1501C5.12376 14.1501 5.4484 13.8255 5.4484 13.4259V10.3848L6.92177 12.896C6.84408 12.6962 6.8524 12.4631 6.96894 12.2633L7.5988 11.1895Z" fill="#F6A74A"/>
<path fill-rule="evenodd" clip-rule="evenodd" d="M11.2975 8.93655C11.0061 8.97539 10.7453 9.09471 10.54 9.27229L10.3291 9.63022C10.5317 9.33611 10.884 9.13078 11.2975 9.09193C11.3419 9.08638 11.389 9.08638 11.4362 9.08638C12.1465 9.08638 12.7237 9.58583 12.7237 10.2018C12.7237 10.8178 12.1465 11.3172 11.4362 11.3172C11.389 11.3172 11.3446 11.3145 11.2975 11.3117V11.3145C10.6704 11.2479 9.98226 11.4504 9.86572 12.0803V12.2135C9.87405 12.1497 9.88515 12.0914 9.95729 11.9971C10.2098 11.6696 10.6288 11.4588 11.1005 11.4588C11.1671 11.4588 11.2309 11.4643 11.2975 11.4699C11.303 11.4699 11.3058 11.4699 11.3113 11.4726V11.4699C11.3724 11.4782 11.4362 11.481 11.5 11.481C12.2742 11.481 12.9013 10.9094 12.9013 10.2046C12.9013 9.49981 12.2742 8.92822 11.5 8.92822C11.4362 8.92822 11.3724 8.931 11.3113 8.93932C11.3058 8.93932 11.303 8.93932 11.2975 8.9421V8.93655Z" fill="#146EF5"/>
</g>
<defs>
<clipPath id="clip0_185_105">
<rect width="18.0004" height="21.8139" fill="white"/>
</clipPath>
</defs>
</svg>
