<svg width="24" height="24" viewBox="0 0 24 24" fill="none" xmlns="http://www.w3.org/2000/svg">
<path d="M12.8307 1.00875C12.9976 0.643123 13.3088 0.539998 13.5676 0.528748C13.9613 0.509998 14.3738 0.781873 14.7619 1.1025C15.0376 1.41375 15.3676 1.65375 15.7501 1.8225C16.0144 1.91625 16.2769 1.935 16.5432 1.92187C16.9182 1.90312 17.2988 1.82062 17.6757 1.80187L17.6963 1.8L17.8669 1.785C18.2982 1.76437 18.7051 1.86562 19.0913 2.08875C19.4457 2.41125 19.6013 2.8125 19.5526 3.29625C19.4701 3.69562 19.5413 4.06125 19.7644 4.39312C20.1488 4.66312 20.5519 4.89937 20.9757 5.1C21.4144 5.34 21.6901 5.70187 21.8101 6.18375C21.8532 6.69375 21.6169 7.02 21.1069 7.16062C20.4432 7.3275 19.5507 7.3275 18.7988 7.90875C17.7001 8.82562 17.3551 9.75 16.8769 9.89062C16.6426 9.62437 15.1801 8.49375 12.7276 7.95187C12.2888 6.43875 12.0226 2.78625 12.8307 1.00875Z" fill="#146EF5"/>
<path d="M15.3057 7.6294C15.7369 6.7669 16.965 5.25003 17.2594 5.55003C17.55 5.87628 16.8807 7.57128 16.41 8.4019C16.2432 8.22565 15.705 7.85628 15.4707 7.7944" fill="#146EF5"/>
<path d="M17.4752 10.3912C17.2221 10.3912 16.9746 10.2619 16.8339 10.0294C15.5439 7.90685 12.6227 8.12998 12.5946 8.13373C12.1821 8.16748 11.8183 7.86373 11.7827 7.4531C11.7653 7.25558 11.8266 7.05919 11.9534 6.90675C12.0802 6.7543 12.2622 6.65818 12.4596 6.63935C12.6171 6.62435 16.3352 6.31873 18.1164 9.2531C18.3321 9.60748 18.2177 10.0687 17.8652 10.2825C17.7414 10.3556 17.6083 10.3912 17.4752 10.3912Z" fill="#F6A74A"/>
<path fill-rule="evenodd" clip-rule="evenodd" d="M7.14585 22.9931C10.3352 23.6231 14.7996 23.6794 18.0115 22.8881C19.9521 22.41 22.0859 20.7975 21.8684 18.5419C21.6846 16.65 20.6834 15.27 19.309 14.2294C19.0952 14.0681 19.0071 13.8488 19.0034 13.6313C18.9884 13.5713 18.9846 13.5094 18.9809 13.44C18.9321 12.5738 17.8934 10.8094 17.3496 10.0144C15.1634 6.81939 11.014 7.50564 7.9221 8.91377C4.7271 10.3688 2.40398 13.6706 2.13773 17.1769C1.87523 20.6419 4.16085 22.4025 7.14585 22.9931ZM14.9253 13.6281C15.0011 13.3357 14.8256 13.0373 14.5332 12.9615C14.2409 12.8857 13.9425 13.0612 13.8667 13.3536L13.4549 14.9415L11.3828 14.4042L11.0082 12.6648C10.9581 12.432 10.8348 12.2151 10.6453 12.0567C10.4546 11.8973 10.2137 11.8119 9.96341 11.8182C9.71438 11.8245 9.48203 11.9204 9.29929 12.0763C9.11725 12.2315 8.99043 12.4404 8.93143 12.668L8.93139 12.6682L8.66405 13.6991L8.23519 13.5879C7.94286 13.5121 7.64443 13.6877 7.56862 13.98C7.49281 14.2723 7.66834 14.5708 7.96067 14.6466L8.38953 14.7578L8.11501 15.8164L7.68615 15.7052C7.39382 15.6294 7.09539 15.8049 7.01958 16.0972C6.94378 16.3896 7.1193 16.688 7.41164 16.7638L7.84049 16.875L7.42871 18.463C7.35291 18.7553 7.52843 19.0537 7.82077 19.1295C8.1131 19.2053 8.41153 19.0298 8.48734 18.7375L8.89912 17.1495L10.9712 17.6869L11.3458 19.4262C11.3959 19.659 11.5192 19.8759 11.7087 20.0343C11.8994 20.1938 12.1403 20.2791 12.3906 20.2728C12.6396 20.2666 12.872 20.1706 13.0547 20.0148C13.2368 19.8595 13.3636 19.6507 13.4226 19.423L13.4226 19.4228L13.69 18.3919L14.1188 18.5031C14.4111 18.5789 14.7096 18.4034 14.7854 18.111C14.8612 17.8187 14.6857 17.5203 14.3933 17.4445L13.9645 17.3333L14.239 16.2746L14.6679 16.3858C14.9602 16.4617 15.2586 16.2861 15.3344 15.9938C15.4102 15.7015 15.2347 15.403 14.9424 15.3272L14.5135 15.216L14.9253 13.6281ZM11.6406 15.6008L13.1804 16.0001L12.9059 17.0587L11.8983 16.7975L11.6406 15.6008ZM12.1561 17.9941L12.6313 18.1174L12.3862 19.0626L12.1561 17.9941ZM10.4557 15.2936L10.7134 16.4902L9.17364 16.0909L9.44816 15.0323L10.4557 15.2936ZM10.1979 14.0969L9.72268 13.9737L9.96778 13.0285L10.1979 14.0969Z" fill="#146EF5"/>
<path d="M7.95802 18.6002L9.46074 12.8053C9.49265 12.6821 9.56068 12.5721 9.65414 12.4923C9.74761 12.4126 9.86123 12.3678 9.97715 12.3649C10.0931 12.3619 10.2047 12.4011 10.2946 12.4762C10.3844 12.5513 10.4474 12.6581 10.4736 12.7799L11.8804 19.3112C11.9066 19.4329 11.9696 19.5397 12.0594 19.6148C12.1493 19.6899 12.2609 19.7291 12.3769 19.7262C12.4928 19.7233 12.6064 19.6784 12.6999 19.5987C12.7933 19.519 12.8614 19.4089 12.8933 19.2857L14.396 13.4908M8.09793 14.1173L14.8051 15.8565M7.54889 16.2345L14.2561 17.9738" stroke="#F6A74A" stroke-width="1.09364" stroke-linecap="round" stroke-linejoin="round"/>
</svg>
