<svg width="210" height="210" viewBox="0 0 210 210" fill="none" xmlns="http://www.w3.org/2000/svg">
<rect width="209.21" height="209.21" rx="104.605" fill="white"/>
<path d="M90.3723 102.639C91.8775 101.282 93.7172 100.617 95.919 100.617C98.1487 100.617 99.9884 101.282 101.494 102.639C102.999 103.969 103.751 105.714 103.751 107.848C103.751 109.953 102.999 111.698 101.494 113.028C100.016 114.33 98.1767 114.995 95.9469 114.995C93.7172 114.995 91.8775 114.33 90.3723 113.028C88.8952 111.698 88.1426 109.953 88.1426 107.848C88.1426 105.714 88.8952 103.969 90.3723 102.639ZM95.9469 111.144C97.7028 111.144 99.0964 109.842 99.0964 107.848C99.0964 105.825 97.7028 104.468 95.9469 104.468C94.1908 104.468 92.7972 105.825 92.7972 107.848C92.7972 109.842 94.2188 111.144 95.9469 111.144Z" fill="black"/>
<path d="M114.257 100.617C112.306 100.617 110.828 101.42 109.881 102.999H109.825L109.853 102.667V102.473C109.853 101.503 109.184 100.922 107.93 100.922H103.805V104.8H104.836C105.254 104.8 105.421 104.994 105.421 105.382V114.663H110.076V108.568C110.076 107.875 110.159 107.266 110.355 106.767C110.8 105.465 111.72 104.8 113.086 104.8C114.117 104.8 114.619 105.41 114.619 106.601V112.723C114.619 114.081 115.204 114.663 116.57 114.663H119.246V105.77C119.246 102.307 117.574 100.617 114.257 100.617Z" fill="black"/>
<path d="M122.564 95.6028V99.3427H126.466V95.6028H122.564ZM124.906 100.922H120.613V104.8H121.645C122.035 104.8 122.23 104.994 122.23 105.382V112.723C122.23 114.081 122.815 114.663 124.181 114.663H126.857V102.889C126.857 101.504 126.271 100.922 124.906 100.922Z" fill="black"/>
<path d="M130.451 102.667C131.761 101.309 133.517 100.617 135.691 100.617C137.67 100.617 139.231 101.226 140.374 102.473C141.517 103.692 142.102 105.299 142.102 107.238C142.102 107.57 142.074 108.041 141.991 108.679H133.267C133.601 110.285 134.911 111.144 136.5 111.144C137.642 111.144 138.925 110.701 140.318 109.759L142.046 113C140.569 114.247 138.283 114.995 136.137 114.995C133.796 114.995 131.957 114.275 130.591 112.862C129.225 111.449 128.556 109.731 128.556 107.792C128.5 105.742 129.141 104.024 130.451 102.667ZM137.503 106.047C137.503 104.883 136.751 103.997 135.608 103.997C134.437 103.997 133.685 104.689 133.378 106.047H137.503Z" fill="black"/>
<path d="M143.746 101.171H146.171V102.362C146.171 102.916 146.087 103.387 146.087 103.387H146.143C147.007 101.753 148.735 100.838 150.714 100.838C154.393 100.838 156.679 103.72 156.679 107.903C156.679 112.197 154.087 114.967 150.519 114.967C148.791 114.967 147.23 114.108 146.31 112.668H146.255C146.255 112.668 146.366 113.139 146.366 113.831V119.981H143.774V101.171H143.746ZM150.129 112.751C152.275 112.751 154.059 111.005 154.059 107.958C154.059 105.022 152.47 103.138 150.212 103.138C148.178 103.138 146.283 104.578 146.283 107.986C146.283 110.368 147.62 112.751 150.129 112.751Z" fill="black"/>
<path d="M165.236 100.838C169.306 100.838 172.567 103.803 172.567 107.875C172.567 111.975 169.278 114.967 165.264 114.967C161.195 114.967 157.934 111.975 157.934 107.875C157.934 103.803 161.222 100.838 165.236 100.838ZM165.264 112.751C167.828 112.751 169.947 110.728 169.947 107.903C169.947 105.105 167.828 103.11 165.264 103.11C162.672 103.11 160.581 105.105 160.581 107.903C160.609 110.728 162.7 112.751 165.264 112.751Z" fill="black"/>
<path d="M174.604 95.8237H177.279V98.4278H174.604V95.8237ZM174.659 101.17H177.251V114.69H174.659V101.17Z" fill="black"/>
<path d="M180.178 101.171H182.714V102.999C182.714 103.553 182.63 104.024 182.63 104.024H182.686C183.188 102.861 184.86 100.838 187.843 100.838C191.048 100.838 192.497 102.584 192.497 106.019V114.662H189.905V106.601C189.905 104.717 189.543 103.221 187.341 103.221C184.693 103.221 182.798 105.409 182.798 108.18V114.662H180.206V101.171H180.178Z" fill="black"/>
<path d="M195.868 103.416H194.084V101.31H195.923V97.4595H198.487V101.31H201.777V103.416H198.487V109.455C198.487 112.142 200.383 112.502 201.387 112.502C201.581 112.502 201.748 112.502 202 112.447V114.746C201.777 114.774 201.497 114.829 201.08 114.829C199.325 114.829 195.868 114.275 195.868 109.76V103.416Z" fill="black"/>
<path d="M86.6632 106.518L85.7713 95.6028H80.3363C80.3363 95.6028 76.1832 104.024 75.8487 105.16H75.793L71.4448 95.6028H66.0098L65.1178 105.077L64.3652 114.69H67.6821C69.1037 114.69 69.6889 114.081 69.8005 112.585C69.8005 112.585 70.3579 103.775 70.2743 102.501H70.3299L70.4973 103.083C70.7202 103.858 73.8141 111.366 73.8141 111.366H77.8834C77.8834 111.366 80.9773 103.969 81.3674 102.501H81.4231L81.897 112.585C82.0086 114.081 82.5938 114.69 84.0154 114.69H87.3321L86.6632 106.518Z" fill="black"/>
<path d="M31.4129 128.375H31.2455C20.4311 128.348 13.1843 126.103 11.6792 124.718C10.0904 123.305 8 115.992 8 105.188C8 94.411 10.0904 87.0697 11.6792 85.6568C13.1843 84.2717 20.459 82.0277 31.2455 82H31.4129C42.2274 82.0277 49.4741 84.2717 50.9793 85.6568C52.568 87.0697 54.6584 94.411 54.6584 105.188C54.6584 115.964 52.568 123.305 50.9793 124.718C49.4741 126.131 42.2274 128.375 31.4129 128.375Z" fill="#0357EE"/>
<path d="M42.0883 106.572L41.1964 95.7405H35.8169C35.8169 95.7405 31.7197 104.079 31.3574 105.215H31.3016L26.9814 95.7405H21.5742L20.6822 105.132L19.9297 114.662H23.2186C24.6401 114.662 25.1976 114.052 25.309 112.556C25.309 112.556 25.8665 103.83 25.7829 102.556H25.8386L26.0059 103.137C26.2288 103.913 29.2948 111.365 29.2948 111.365H33.3362C33.3362 111.365 36.4023 104.024 36.7924 102.556H36.8482L37.3221 112.556C37.4336 114.052 38.0189 114.662 39.4125 114.662H42.7013L42.0883 106.572Z" fill="white"/>
</svg>
