<svg width="27" height="26" viewBox="0 0 27 26" fill="none" xmlns="http://www.w3.org/2000/svg">
<rect x="0.730469" width="25.9609" height="25.9609" rx="12.9805" fill="#FFCC08"/>
<path d="M13.7124 7.40479C7.54158 7.40479 2.53906 9.90606 2.53906 12.9914C2.53906 16.0768 7.54158 18.5781 13.7124 18.5781C19.8832 18.5781 24.8857 16.0768 24.8857 12.9914C24.8857 9.90602 19.8832 7.40479 13.7124 7.40479ZM13.7124 17.6961C8.02865 17.6961 3.42108 15.5898 3.42108 12.9914C3.42108 10.3931 8.0287 8.28676 13.7124 8.28676C19.3961 8.28676 24.0037 10.3931 24.0037 12.9914C24.0037 15.5898 19.3961 17.6961 13.7124 17.6961ZM12.3033 12.0113V11.1292H15.4554V12.0113H14.3206V14.8537H13.4383V12.0113H12.3033ZM19.2603 11.1292V14.8537H18.3783L16.7786 12.6365V14.8537H15.8966V11.1292H16.7785L18.3782 13.3464V11.1292H19.2603ZM8.13825 14.8537V11.1292H9.02027L10.0002 12.6365L10.9801 11.1292H11.8618V14.8537H10.9801V12.747L10.3111 13.7754H9.68926L9.02027 12.747V14.8537H8.13825Z" fill="black"/>
</svg>
