<svg width="23" height="23" viewBox="0 0 23 23" fill="none" xmlns="http://www.w3.org/2000/svg">
<g clip-path="url(#clip0_125_101)">
<path d="M20.3252 17.3996C19.7223 16.8622 19.1945 16.246 18.756 15.5678C18.2772 14.6315 17.9902 13.6091 17.9119 12.5605V9.47195C17.9161 7.8249 17.3186 6.23303 16.2318 4.99542C15.145 3.75781 13.6437 2.95966 12.0099 2.75092V1.9444C12.0099 1.72303 11.922 1.51074 11.7655 1.35421C11.6089 1.19768 11.3966 1.10974 11.1753 1.10974C10.9539 1.10974 10.7416 1.19768 10.5851 1.35421C10.4285 1.51074 10.3406 1.72303 10.3406 1.9444V2.76343C8.72147 2.98721 7.23829 3.79019 6.16577 5.02364C5.09325 6.25709 4.50408 7.83743 4.50738 9.47195V12.5605C4.42907 13.6091 4.14211 14.6315 3.66334 15.5678C3.2325 16.2445 2.71314 16.8605 2.11907 17.3996C2.05238 17.4582 1.99893 17.5304 1.96227 17.6112C1.92562 17.6921 1.90661 17.7798 1.90649 17.8686V18.7188C1.90649 18.8847 1.97236 19.0437 2.08961 19.1609C2.20686 19.2782 2.36589 19.3441 2.53171 19.3441H19.9126C20.0784 19.3441 20.2374 19.2782 20.3547 19.1609C20.4719 19.0437 20.5378 18.8847 20.5378 18.7188V17.8686C20.5377 17.7798 20.5187 17.6921 20.482 17.6112C20.4454 17.5304 20.3919 17.4582 20.3252 17.3996ZM3.20694 18.0936C3.78864 17.5317 4.30081 16.902 4.73245 16.218C5.33554 15.0873 5.68742 13.8397 5.76405 12.5605V9.47195C5.73926 8.73923 5.86216 8.009 6.12545 7.32477C6.38874 6.64053 6.78703 6.01627 7.2966 5.48917C7.80617 4.96206 8.4166 4.54289 9.09155 4.2566C9.76649 3.97032 10.4921 3.82279 11.2253 3.82279C11.9584 3.82279 12.6841 3.97032 13.359 4.2566C14.034 4.54289 14.6444 4.96206 15.154 5.48917C15.6635 6.01627 16.0618 6.64053 16.3251 7.32477C16.5884 8.009 16.7113 8.73923 16.6865 9.47195V12.5605C16.7631 13.8397 17.115 15.0873 17.7181 16.218C18.1498 16.902 18.6619 17.5317 19.2436 18.0936H3.20694Z" fill="#146EF5"/>
<path d="M11.2537 21.4323C11.6475 21.4232 12.0255 21.2752 12.3207 21.0143C12.6159 20.7534 12.8093 20.3966 12.8667 20.0068H9.57812C9.63719 20.4072 9.83967 20.7724 10.1479 21.0346C10.4561 21.2968 10.8491 21.4382 11.2537 21.4323Z" fill="#146EF5"/>
</g>
<defs>
<clipPath id="clip0_125_101">
<rect width="22.5076" height="22.5076" fill="white"/>
</clipPath>
</defs>
</svg>
