<svg width="24" height="24" viewBox="0 0 24 24" fill="none" xmlns="http://www.w3.org/2000/svg">
<path d="M15 16.69V13H16.5V15.82L18.94 17.23L18.19 18.53L15 16.69ZM10.87 20.76L9 22L6 20L3 22V3H21V11.1C22.24 12.36 23 14.09 23 16C23 19.87 19.87 23 16 23C15.0363 23.0027 14.0827 22.8049 13.1995 22.4193C12.3164 22.0337 11.5231 21.4686 10.87 20.76ZM9.73 19.11C9.26 18.17 9 17.12 9 16C9 12.13 12.13 9 16 9C17.07 9 18.09 9.24 19 9.67V5H5V18.26L6 17.6L9 19.6L9.73 19.11ZM16 21C18.76 21 21 18.76 21 16C21 13.24 18.76 11 16 11C13.24 11 11 13.24 11 16C11 18.76 13.24 21 16 21Z" fill="#F6A74A"/>
<path fill-rule="evenodd" clip-rule="evenodd" d="M9.67 13H7V11H11.1C12.36 9.76 14.09 9 16 9C17.07 9 18.09 9.24 19 9.67V5H5V18.26L6 17.6L9 19.6L9.73 19.11C9.26 18.17 9 17.12 9 16C9 14.93 9.24 13.91 9.67 13ZM16 9H17V7H7V9H16Z" fill="#146EF5"/>
<path fill-rule="evenodd" clip-rule="evenodd" d="M18.94 17.23L16.5 15.82V13H15V16.69L18.19 18.53L18.94 17.23ZM23 16C23 14.09 22.24 12.36 21 11.1V3H3V22L6 20L9 22L10.87 20.76C11.5231 21.4686 12.3164 22.0337 13.1995 22.4193C14.0827 22.8049 15.0363 23.0027 16 23C19.87 23 23 19.87 23 16ZM11.1 11C10.5 11.57 10.03 12.25 9.67 13C9.24 13.91 9 14.93 9 16C9 17.12 9.26 18.17 9.73 19.11L9 19.6L6 17.6L5 18.26V5H19V9.67C18.09 9.24 17.07 9 16 9C14.09 9 12.36 9.76 11.1 11ZM21 16C21 18.76 18.76 21 16 21C13.24 21 11 18.76 11 16C11 13.24 13.24 11 16 11C18.76 11 21 13.24 21 16Z" fill="#146EF5"/>
<path d="M15 16.69V13H16.5V15.82L18.94 17.23L18.19 18.53L15 16.69Z" fill="#F6A74A"/>
</svg>
