<svg width="210" height="210" viewBox="0 0 210 210" fill="none" xmlns="http://www.w3.org/2000/svg">
<rect width="209.21" height="209.21" rx="104.605" fill="white"/>
<path d="M143.31 78.8494C143.404 99.7876 126.411 117.626 104.531 117.654C83.1853 117.679 65.665 100.471 65.6817 78.8095C65.6983 56.8651 83.5678 39.9552 104.568 40.0001C126.068 40.045 143.415 57.5969 143.31 78.8494ZM106.03 63.5196C105.961 69.7832 111.212 74.8594 117.366 74.8577C123.249 74.8577 128.692 70.1076 128.706 63.503C128.719 56.8368 123.274 52.1199 117.423 52.1083C111.375 52.0966 105.958 57.1362 106.03 63.5196Z" fill="#DB353A"/>
<path d="M179.69 154.831C179.561 154.787 179.523 154.816 179.483 154.882C178.53 156.499 177.035 157.377 175.267 157.723C172.139 158.343 169.225 157.743 166.65 155.827C164.528 154.247 163.337 152.066 162.991 149.468C162.607 146.841 163.02 144.159 164.175 141.768C165.86 138.275 168.654 136.171 172.421 135.356C173.948 135.005 175.524 134.926 177.078 135.123C180.955 135.654 183.593 137.749 185.025 141.367C185.526 142.591 185.786 143.9 185.79 145.222C185.762 149.116 185.928 153.004 185.996 156.896C186.029 158.432 185.767 159.961 185.225 161.399C183.977 164.698 181.68 166.947 178.339 168.061C175.647 168.969 172.745 169.045 170.01 168.278C168.999 168.013 168.045 167.567 167.194 166.962C165.755 165.927 164.945 164.572 165.032 162.747C165.062 162.105 165.032 161.46 165.04 160.816C165.04 160.69 165.068 160.557 165.198 160.515C165.259 160.502 165.323 160.507 165.382 160.528C165.441 160.55 165.492 160.587 165.531 160.637C166.112 161.184 166.779 161.634 167.505 161.967C168.506 162.432 169.566 162.758 170.655 162.937C171.766 163.123 172.894 163.186 174.018 163.123C174.939 163.093 175.847 162.906 176.704 162.568C178.341 161.902 179.319 160.683 179.661 158.969C179.845 158.094 179.889 157.196 179.791 156.307C179.738 155.813 179.723 155.306 179.69 154.831ZM179.571 146.514C179.571 145.008 179.405 144.07 178.991 143.151C178.173 141.31 176.604 140.46 174.643 140.56C172.682 140.66 171.151 141.635 170.193 143.369C169.665 144.289 169.35 145.315 169.269 146.373C169.187 147.43 169.343 148.492 169.724 149.482C170.517 151.644 172.551 153.154 175.473 152.545C177.303 152.163 178.467 150.972 179.121 149.257C179.44 148.381 179.593 147.452 179.571 146.519V146.514Z" fill="#686767"/>
<path d="M44.4109 136.949C44.1814 136.929 44.0783 136.757 43.9502 136.636C42.2637 135.079 40.2396 134.308 37.9909 134.031C36.6514 133.867 35.2965 133.87 33.9576 134.04C33.0403 134.127 32.1456 134.375 31.3148 134.773C29.9526 135.472 29.2907 136.579 29.3356 138.12C29.3401 138.473 29.4211 138.821 29.5729 139.141C29.7248 139.46 29.944 139.743 30.2154 139.969C30.6382 140.325 31.1127 140.614 31.6225 140.827C32.7795 141.316 33.9787 141.699 35.205 141.97C36.2462 142.219 37.2974 142.436 38.3302 142.72C39.7269 143.09 41.0449 143.71 42.2205 144.55C43.9103 145.777 45.0479 147.395 45.2974 149.478C45.8579 154.085 44.0234 158.507 38.9556 160.36C36.6737 161.192 34.2986 161.391 31.8903 161.202C30.6964 161.135 29.5151 160.922 28.3726 160.57C27.583 160.324 26.8318 159.969 26.1405 159.515C24.5555 158.437 23.7305 156.942 23.6906 155.025C23.6723 154.166 23.6906 153.308 23.6906 152.45C23.6906 152.259 23.847 152.177 23.995 152.284C24.1913 152.43 24.3759 152.593 24.5688 152.743C27.4994 155.018 30.8108 155.903 34.4865 155.474C35.2814 155.401 36.0617 155.215 36.8034 154.92C37.6217 154.574 38.2903 154.055 38.6645 153.23C39.1153 152.232 39.1252 151.206 38.8758 150.171C38.7494 149.649 38.3768 149.265 37.9543 148.944C37.4803 148.604 36.9607 148.332 36.4109 148.137C35.0018 147.627 33.5563 147.223 32.0865 146.93C30.9751 146.708 29.8816 146.405 28.815 146.022C27.6297 145.598 26.5256 144.974 25.5501 144.179C23.6407 142.572 22.8324 140.49 23.0287 138.06C23.3846 133.784 25.7613 130.963 29.61 129.291C30.9656 128.71 32.4184 128.388 33.8928 128.342C35.6724 128.273 37.4471 128.305 39.1918 128.729C40.15 128.943 41.0694 129.304 41.9178 129.799C42.8027 130.302 43.5261 131.047 44.0034 131.946C44.2754 132.429 44.4351 132.967 44.4708 133.521C44.4991 134.592 44.5074 135.665 44.5157 136.737C44.5157 136.804 44.4542 136.881 44.4109 136.949Z" fill="#686767"/>
<path d="M76.1914 150.821C75.0587 150.821 73.9244 150.821 72.7901 150.821C72.4442 150.821 72.3527 150.941 72.4259 151.275C72.6065 152.118 72.9915 152.903 73.5469 153.562C74.5548 154.762 75.8654 155.437 77.3723 155.774C78.6164 156.054 79.8671 156.006 81.1245 155.901C82.0721 155.825 83.0079 155.64 83.9137 155.352C84.9997 155.016 86.0095 154.471 86.8859 153.747C87.0755 153.581 87.2634 153.67 87.2634 153.905C87.2634 154.793 87.3166 155.68 87.1703 156.566C87.0789 157.189 86.8584 157.787 86.5231 158.32C86.1877 158.853 85.7448 159.311 85.2226 159.663C84.3319 160.268 83.3227 160.677 82.2621 160.862C80.391 161.228 78.5083 161.383 76.5972 161.132C72.0284 160.535 67.6957 157.238 66.3402 152.185C65.9198 150.614 65.7757 148.982 65.9144 147.362C66.0076 145.924 66.282 144.504 66.731 143.136C67.6408 140.505 69.1793 138.347 71.5544 136.84C73.1361 135.843 74.8725 135.309 76.7303 135.099C78.6535 134.854 80.6072 135.133 82.3852 135.906C85.3557 137.216 87.2584 139.447 87.9586 142.64C88.2218 143.747 88.2597 144.895 88.0701 146.016C87.8256 147.347 87.1703 148.408 86.0276 149.153C85.1926 149.671 84.2734 150.038 83.3116 150.239C81.8458 150.568 80.351 150.751 78.8492 150.785C77.9611 150.811 77.0729 150.785 76.1881 150.785L76.1914 150.821ZM75.4463 146.401C76.687 146.387 78.0326 146.401 79.3698 146.209C80.0076 146.136 80.6325 145.976 81.2276 145.735C81.5597 145.608 81.8439 145.38 82.0409 145.084C82.2379 144.788 82.3379 144.438 82.327 144.082C82.3469 142.66 81.7815 141.408 80.3311 140.756C79.0351 140.173 77.5774 140.055 76.2047 140.423C74.5498 140.852 73.4671 141.966 72.7951 143.507C72.4708 144.247 72.3776 145.037 72.3078 145.835C72.2645 146.316 72.3161 146.386 72.7752 146.391C73.63 146.407 74.4866 146.401 75.4463 146.401Z" fill="#686767"/>
<path d="M159.011 152.443C159.011 154.772 159.011 157.1 159.011 159.429C159.011 159.614 159.011 159.798 159.011 159.981C158.996 160.675 158.984 160.69 158.277 160.696C157.542 160.696 156.805 160.723 156.082 160.552C154.498 160.177 153.382 159.288 152.91 157.689C152.768 157.212 152.787 156.718 152.787 156.227C152.787 153.13 152.787 150.034 152.787 146.938C152.798 145.987 152.694 145.037 152.477 144.111C152.355 143.604 152.161 143.117 151.902 142.664C151.449 141.851 150.717 141.231 149.841 140.916C148.773 140.506 147.604 140.438 146.495 140.721C145.532 140.96 144.696 141.554 144.155 142.384C143.678 143.102 143.373 143.92 143.265 144.774C143.173 145.442 143.126 146.116 143.125 146.79C143.133 151.084 143.133 155.376 143.125 159.667C143.125 160.791 143.198 160.696 142.071 160.696C141.458 160.72 140.845 160.679 140.241 160.577C138.347 160.191 137.156 158.913 136.953 157.007C136.92 156.672 136.904 156.335 136.906 155.998C136.906 152.716 136.906 149.435 136.906 146.157C136.906 144.826 137.031 143.522 137.447 142.256C138.525 138.978 140.675 136.736 143.97 135.667C146.447 134.863 148.96 134.749 151.484 135.474C155.448 136.616 157.805 139.274 158.713 143.263C158.924 144.287 159.023 145.331 159.009 146.376C159.019 148.395 159.011 150.419 159.011 152.443Z" fill="#676767"/>
<path d="M49.5981 144.147C49.5981 141.601 49.5981 139.056 49.5981 136.511C49.5872 136.021 49.6139 135.531 49.678 135.044C49.9956 133 51.2031 131.542 52.8381 130.397C53.6397 129.839 54.5711 129.85 55.4992 129.925C55.5772 129.93 55.6501 129.965 55.7021 130.023C55.7542 130.082 55.7811 130.158 55.777 130.236C55.7886 130.451 55.7886 130.665 55.7886 130.88C55.7886 132.106 55.7886 133.333 55.7886 134.559C55.7886 134.773 55.7886 134.988 55.7886 135.202C55.7826 135.248 55.7868 135.295 55.8011 135.339C55.8154 135.384 55.8393 135.424 55.8712 135.458C55.903 135.491 55.942 135.518 55.9853 135.535C56.0285 135.551 56.075 135.558 56.1213 135.555C56.3674 135.555 56.6119 135.565 56.8564 135.565H63.2964C63.481 135.565 63.6639 135.565 63.8485 135.565C64.4456 135.578 64.4589 135.588 64.4689 136.195C64.4689 136.718 64.4689 137.238 64.4689 137.759C64.4573 139.532 63.3845 140.781 61.6282 141.035C61.1721 141.094 60.7126 141.123 60.2527 141.12C59.1184 141.132 57.9841 141.12 56.8497 141.12C56.6352 141.12 56.4206 141.12 56.2061 141.12C55.9084 141.137 55.8119 141.225 55.7936 141.496C55.7803 141.679 55.7836 141.864 55.7836 142.048C55.7836 144.96 55.7836 147.873 55.7836 150.787C55.7599 151.492 55.8344 152.197 56.0048 152.882C56.4339 154.379 57.3537 155.211 58.9604 155.357C60.6785 155.504 62.3932 155.414 64.0016 154.655C64.3425 154.489 64.4589 154.567 64.4639 154.925C64.4639 155.59 64.4889 156.275 64.4639 156.947C64.3858 158.567 63.6057 159.722 62.1155 160.388C61.5561 160.643 60.9589 160.803 60.3475 160.864C58.6277 161.03 56.9163 160.964 55.2481 160.455C52.4639 159.608 50.7158 157.756 49.974 154.951C49.7109 153.941 49.5812 152.901 49.5882 151.858C49.5882 149.283 49.5882 146.708 49.5882 144.132L49.5981 144.147Z" fill="#686868"/>
<path d="M108.838 140.942C108.838 136.651 108.838 132.361 108.838 128.072C108.838 127.191 108.81 127.225 109.696 127.229C110.157 127.229 110.616 127.229 111.075 127.239C111.597 127.253 112.113 127.355 112.6 127.541C113.856 127.994 114.608 128.894 114.929 130.176C115.047 130.715 115.1 131.266 115.085 131.818C115.085 138.497 115.085 145.177 115.085 151.856C115.085 152.285 115.085 152.716 115.113 153.142C115.218 154.432 115.89 155.239 117.127 155.57C117.661 155.713 118.21 155.785 118.762 155.783C119.376 155.783 119.988 155.783 120.602 155.793C120.806 155.793 120.966 155.873 120.973 156.102C120.996 156.934 121.031 157.765 120.806 158.567C120.695 159.031 120.468 159.46 120.146 159.813C119.824 160.166 119.418 160.431 118.965 160.585C118.537 160.744 118.09 160.845 117.635 160.886C116.258 161.012 114.87 160.868 113.548 160.461C111.028 159.663 109.595 157.907 109.058 155.359C108.907 154.576 108.839 153.779 108.855 152.982C108.845 148.969 108.839 144.956 108.838 140.942Z" fill="#686868"/>
<path d="M98.1032 152.696C98.1032 155.09 98.1032 157.482 98.1032 159.873C98.1032 160.705 98.0932 160.705 97.3032 160.705C96.5131 160.705 95.7081 160.721 94.9231 160.538C93.511 160.222 92.4549 159.48 92.0058 158.043C91.8624 157.574 91.7912 157.085 91.7946 156.593C91.7946 152.73 91.7763 148.866 91.8062 145.002C91.7924 143.371 92.1329 141.756 92.8042 140.269C94.0665 137.558 96.1905 135.994 99.1244 135.507C100.334 135.282 101.575 135.288 102.783 135.522C103.356 135.633 103.905 135.843 104.405 136.144C104.967 136.467 105.435 136.931 105.762 137.491C106.089 138.05 106.264 138.686 106.27 139.334C106.293 139.946 106.281 140.56 106.27 141.174C106.27 141.619 106.15 141.689 105.696 141.546C105.491 141.483 105.292 141.401 105.087 141.337C103.914 140.964 102.673 140.855 101.453 141.017C100.052 141.203 99.0861 141.959 98.5672 143.271C98.3332 143.839 98.1971 144.443 98.1647 145.057C98.1348 145.761 98.1098 146.466 98.1082 147.171C98.0982 149.012 98.1032 150.852 98.1032 152.696Z" fill="#686868"/>
<path d="M123.387 145.415C123.387 142.592 123.387 139.77 123.387 136.951C123.387 136.134 123.387 136.132 124.18 136.119C124.916 136.088 125.653 136.132 126.379 136.25C128.026 136.583 129.04 137.558 129.438 139.176C129.575 139.776 129.64 140.39 129.629 141.006C129.621 144.686 129.621 148.366 129.629 152.046C129.629 152.443 129.619 152.844 129.657 153.24C129.775 154.446 130.313 155.357 131.775 155.655C132.44 155.765 133.114 155.808 133.787 155.785C134.607 155.785 134.604 155.777 134.599 156.593C134.623 157.267 134.573 157.942 134.451 158.606C134.188 159.77 133.508 160.497 132.335 160.768C131.948 160.859 131.552 160.91 131.154 160.921C130.172 160.953 129.191 160.841 128.242 160.588C125.913 159.95 124.443 158.439 123.775 156.141C123.505 155.196 123.374 154.216 123.385 153.233C123.385 150.627 123.385 148.021 123.385 145.416L123.387 145.415Z" fill="#686868"/>
<path d="M122.835 130.136C122.837 129.178 123.218 128.259 123.896 127.581C124.573 126.903 125.492 126.521 126.45 126.519C128.466 126.519 130.196 128.217 130.133 130.193C130.12 131.154 129.731 132.073 129.049 132.751C128.367 133.43 127.447 133.815 126.485 133.823C126.002 133.827 125.523 133.733 125.076 133.549C124.629 133.364 124.223 133.092 123.883 132.749C123.543 132.405 123.275 131.997 123.095 131.548C122.915 131.1 122.826 130.619 122.835 130.136Z" fill="#686868"/>
<path d="M106.028 63.5192C105.957 57.1358 111.374 52.0963 117.421 52.1079C123.272 52.1196 128.718 56.8364 128.704 63.5026C128.691 70.1072 123.247 74.8574 117.365 74.8574C111.211 74.8574 105.96 69.7829 106.028 63.5192Z" fill="#FFFEFE"/>
</svg>
