<svg width="24" height="24" viewBox="0 0 24 24" fill="none" xmlns="http://www.w3.org/2000/svg">
<path d="M19.274 2.61301C19.3249 2.69737 19.3587 2.79095 19.3735 2.88838C19.3882 2.98581 19.3836 3.0852 19.3599 3.18085C19.3363 3.27651 19.294 3.36656 19.2355 3.44586C19.177 3.52516 19.1034 3.59215 19.019 3.64301L14.696 6.25001H19C20.57 6.25001 21.75 7.60301 21.75 9.15401V18.846C21.75 20.396 20.57 21.75 19 21.75H5C3.43 21.75 2.25 20.397 2.25 18.846V9.15401C2.25 7.60401 3.43 6.25001 5 6.25001H8.995L4.96 3.62901C4.8774 3.57537 4.80617 3.50598 4.75039 3.42481C4.6946 3.34363 4.65535 3.25227 4.63488 3.15593C4.59352 2.96136 4.63116 2.75833 4.7395 2.59151C4.84784 2.42469 5.01801 2.30774 5.21258 2.26639C5.40715 2.22504 5.61018 2.26267 5.777 2.37101L11.749 6.25001H11.791L18.244 2.35801C18.3284 2.30708 18.4219 2.27328 18.5194 2.25853C18.6168 2.24379 18.7162 2.24839 18.8118 2.27207C18.9075 2.29575 18.9975 2.33805 19.0768 2.39655C19.1561 2.45505 19.2231 2.52861 19.274 2.61301Z" fill="#146EF5"/>
<path d="M18 11V14" stroke="#F6A74A" stroke-width="2" stroke-linecap="round" stroke-linejoin="round"/>
<path d="M18 17.25C18.4142 17.25 18.75 17.5858 18.75 18C18.75 18.4142 18.4142 18.75 18 18.75C17.5858 18.75 17.25 18.4142 17.25 18C17.25 17.5858 17.5858 17.25 18 17.25Z" fill="#146EF5" stroke="#F6A74A" stroke-width="0.5"/>
</svg>
