<svg width="210" height="210" viewBox="0 0 210 210" fill="none" xmlns="http://www.w3.org/2000/svg">
<rect width="209.21" height="209.21" rx="104.605" fill="white"/>
<path d="M114.76 113.183C114.836 113.045 114.897 112.899 114.963 112.757L139.101 60.2971C139.299 59.8693 139.498 59.4433 139.693 59.0137C139.761 58.8663 139.829 58.7369 140.027 58.7387C140.471 58.7387 140.917 58.7387 141.424 58.7387C141.312 59.0083 141.244 59.2078 141.15 59.4002C132.544 78.1631 123.939 96.9255 115.334 115.687C114.99 116.435 114.636 117.181 114.305 117.934C114.014 118.599 114.057 119.246 114.539 119.811C114.749 120.074 115.029 120.272 115.348 120.38C115.667 120.488 116.01 120.503 116.337 120.422C117.055 120.276 117.415 119.778 117.695 119.164C126.284 100.474 134.869 81.7874 143.451 63.1047C144.271 61.3216 145.069 59.5332 145.914 57.7573C146.377 56.7723 146.002 55.3865 144.707 55.1186V55H138.226C138.232 55.0183 138.234 55.0377 138.233 55.0569C138.231 55.0761 138.225 55.0947 138.215 55.1114C137.51 55.266 137.137 55.7639 136.847 56.3697C135.889 58.4571 134.93 60.5439 133.971 62.6302C127.155 77.5059 120.332 92.378 113.502 107.246C113.405 107.46 113.302 107.671 113.186 107.919C112.916 107.739 112.912 107.441 112.767 107.23C112.267 106.511 112.389 105.848 112.751 105.063C119.782 89.7687 126.792 74.4658 133.781 59.1539C134 58.6722 134.227 58.1923 134.444 57.7159C134.958 56.5728 134.41 55.4296 133.197 55.1007C133.191 55.0664 133.177 55.0338 133.157 55.0054H126.803C126.813 55.0424 126.808 55.0818 126.789 55.115C126.088 55.257 125.672 55.7208 125.388 56.3409C124.293 58.7315 123.196 61.1209 122.097 63.5091L107.655 94.9645C107.588 95.1065 107.52 95.2467 107.43 95.43C107.139 95.1209 107.071 94.7254 106.873 94.4109C106.503 93.8249 106.562 93.3018 106.855 92.6674C112.144 81.2128 117.417 69.7511 122.673 58.2821C122.897 57.7932 123.066 57.3061 122.942 56.7507C122.873 56.3921 122.693 56.0642 122.427 55.813C122.162 55.5619 121.825 55.4002 121.463 55.3505C121.248 55.325 121.032 55.3148 120.816 55.3199C119.166 55.3199 117.516 55.3505 115.867 55.3074C114.8 55.2786 114.14 55.7352 113.71 56.6842C110.815 63.016 107.909 69.3448 104.991 75.6707C103.959 77.9175 102.928 80.1643 101.896 82.4111C101.824 82.5711 101.738 82.7239 101.619 82.9593C101.331 82.3302 101.08 81.7658 100.812 81.1996C100.713 80.9821 100.866 80.8222 100.943 80.6604C101.795 78.7839 102.651 76.9097 103.512 75.038C106.11 69.3652 108.707 63.6919 111.304 58.0179C111.663 57.2378 111.557 56.4631 111.021 55.8843C110.874 55.7118 110.691 55.5729 110.486 55.4768C110.28 55.3807 110.057 55.3297 109.83 55.3271C107.885 55.3271 105.94 55.311 103.995 55.3271C103.159 55.3271 102.618 55.8214 102.28 56.5566L100.339 60.7824C98.9408 63.8309 97.5406 66.8763 96.1386 69.9188C96.0685 70.0734 96.0379 70.2603 95.842 70.3736L94.3878 67.2227C92.8079 63.7823 91.2153 60.3456 89.6588 56.8945C89.2993 56.0839 88.8751 55.3721 88.0249 55.0054H87.1998C87.0507 55.1995 86.8008 55.2319 86.6139 55.3649C86.0045 55.8035 85.699 56.3768 85.7906 57.1354C85.845 57.4047 85.9401 57.6641 86.0728 57.9047C88.5893 63.4001 91.1057 68.8937 93.6221 74.3855C93.7062 74.5367 93.752 74.7062 93.7555 74.8791C93.7589 75.0521 93.7199 75.2233 93.6419 75.3777C90.585 82.0031 87.5378 88.6315 84.5001 95.2629C84.454 95.4117 84.3719 95.547 84.261 95.6565C84.112 95.4607 83.9955 95.2422 83.9159 95.0094C78.0598 82.2619 72.2043 69.5132 66.3494 56.7633C66.2586 56.5464 66.1504 56.3373 66.0259 56.1378C65.4866 55.3325 64.5088 55.0593 63.7054 55.4907C62.7707 55.9868 62.422 56.9287 62.8264 57.8813C62.8965 58.0449 62.9738 58.2031 63.0457 58.3648L82.3647 100.533C82.441 100.717 82.5268 100.897 82.6217 101.072C83.3533 102.33 84.9944 102.363 85.7763 101.146C85.9155 100.909 86.0386 100.664 86.1447 100.411L95.5544 79.9845C95.6269 79.7726 95.7338 79.574 95.8707 79.3968C96.1457 79.7904 96.268 80.2506 96.5016 80.655C96.6922 80.9821 96.6472 81.2643 96.4927 81.5933C95.6766 83.335 94.875 85.0857 94.0805 86.8328C91.2046 93.0915 88.3286 99.3503 85.4527 105.609C85.3281 105.855 85.2624 106.126 85.2608 106.402C85.2593 106.677 85.3219 106.949 85.4437 107.196C85.5965 107.516 85.7421 107.838 85.8877 108.16C86.6552 109.858 87.4263 111.555 88.1848 113.257C88.4401 113.829 88.8247 114.24 89.4431 114.399C90.437 114.652 91.2603 114.26 91.7096 113.297C92.6443 111.285 93.5664 109.27 94.4939 107.255C96.7707 102.299 99.051 97.3443 101.335 92.3905C101.409 92.2306 101.434 92.0311 101.648 91.9268C101.84 92.3456 101.995 92.7518 102.205 93.1257C102.415 93.4996 102.374 93.7961 102.205 94.1682C98.5921 102.025 94.984 109.888 91.3807 117.754C91.2908 117.95 91.192 118.144 91.1219 118.348C91.0336 118.583 90.997 118.836 91.0144 119.087C91.0319 119.338 91.1031 119.583 91.2232 119.804C91.3433 120.026 91.5096 120.219 91.7107 120.371C91.9118 120.523 92.1431 120.629 92.3891 120.684C93.2608 120.909 94.0751 120.504 94.4921 119.606C95.4507 117.539 96.401 115.47 97.3428 113.401C99.6052 108.481 101.869 103.561 104.134 98.6421C104.216 98.4623 104.241 98.2305 104.482 98.1244C104.624 98.4282 104.757 98.7122 104.889 98.9962C105.16 99.5839 105.413 100.182 105.708 100.758C105.852 101.062 106.079 101.32 106.363 101.502C106.647 101.684 106.976 101.782 107.313 101.786C108.052 101.813 108.572 101.426 108.949 100.813C109.055 100.625 109.15 100.431 109.235 100.233L126.911 61.8303C127.329 60.9208 127.748 60.0119 128.169 59.1036C128.252 58.9238 128.308 58.7279 128.566 58.7441C128.994 58.7639 129.426 58.7063 129.862 58.7818C129.88 59.0928 129.701 59.3211 129.591 59.5601C124 71.7612 118.405 83.9599 112.806 96.1562C111.398 99.2238 109.99 102.291 108.58 105.357C108.464 105.574 108.397 105.815 108.386 106.061C108.374 106.306 108.417 106.552 108.512 106.779C109.471 108.911 110.433 111.038 111.399 113.162C111.728 113.881 112.328 114.195 113.105 114.201C113.45 114.212 113.791 114.121 114.085 113.94C114.379 113.76 114.614 113.496 114.76 113.183ZM98.0798 74.47C98.8287 72.8307 99.5825 71.192 100.341 69.5539C101.885 66.2053 103.436 62.8602 104.96 59.5026C105.14 59.0964 105.363 58.9346 105.796 58.9849C106.145 59.0034 106.494 59.0034 106.842 58.9849L98.7287 76.6718C98.4339 76.0338 98.202 75.5215 97.963 75.0146C97.8641 74.8025 98.0097 74.6407 98.087 74.47H98.0798ZM99.3865 87.8574C98.3081 90.212 97.2296 92.5643 96.1511 94.9142C94.2327 99.101 92.313 103.291 90.3921 107.486C90.2879 107.714 90.18 107.938 90.0416 108.235C90.0026 108.194 89.9665 108.15 89.9338 108.104C89.6839 107.55 89.2867 107.013 89.2292 106.439C89.1752 105.9 89.6192 105.395 89.8547 104.881C92.6994 98.6511 95.549 92.4259 98.4033 86.2055C98.4768 85.9768 98.5995 85.767 98.7628 85.5908C99.0324 86.1804 99.3021 86.743 99.5465 87.3092C99.6328 87.5177 99.4818 87.6848 99.3937 87.8574H99.3865ZM104.477 89.1947C104.189 88.5728 103.965 88.0731 103.726 87.577C103.6 87.3163 103.749 87.1186 103.844 86.9119C104.768 84.8952 105.696 82.8808 106.627 80.8689C109.891 73.775 113.154 66.6804 116.417 59.5853C116.475 59.4613 116.54 59.339 116.597 59.2114C116.623 59.1388 116.672 59.077 116.738 59.0361C116.803 58.9953 116.88 58.9779 116.957 58.9867C117.386 58.9867 117.814 58.9867 118.332 58.9867L104.477 89.1947Z" fill="#990D81"/>
<path d="M44.2271 136.288L39.3057 149.704L37.7545 153.82C37.7348 153.876 34.6413 153.989 34.6413 153.989C34.6298 153.913 34.6117 153.838 34.5874 153.765C33.1543 150.22 31.7187 146.676 30.2807 143.133C30.2394 143.03 30.2214 142.908 30.0866 142.877C30.0648 142.911 30.045 142.946 30.0273 142.982L25.5678 153.989H22.5122C22.5535 153.759 22.4187 153.572 22.3468 153.375C21.5331 151.182 20.7189 148.994 19.9041 146.812C18.7932 143.816 17.6818 140.824 16.5698 137.836L16.5554 137.796L16.0809 136.532L16 136.313C17.3014 136.313 18.6063 136.313 19.9077 136.281C20.251 136.281 20.3301 136.461 20.4253 136.716C21.3169 139.061 22.2126 141.405 23.1125 143.749C23.4504 144.623 23.7866 145.496 24.1694 146.49C24.2791 146.242 24.3492 146.095 24.4085 145.951C25.6463 142.911 26.8848 139.874 28.1238 136.842C28.3862 136.202 28.2478 136.302 28.9668 136.29C29.8655 136.29 30.7643 136.29 31.6756 136.29C32.195 136.29 32.1968 136.29 32.3945 136.779C33.5773 139.809 34.7594 142.841 35.9409 145.874C36.0092 146.053 36.0901 146.233 36.2069 146.506C36.3094 146.266 36.3867 146.118 36.437 145.967L40.0643 136.838C40.2817 136.288 40.2835 136.288 40.8479 136.288H44.2271Z" fill="#990D81"/>
<path d="M85.2415 147.518C85.2415 143.889 85.2415 140.258 85.2415 136.628C85.2415 136.106 85.2415 136.103 84.731 136.101C83.6525 136.101 82.5741 136.128 81.4956 136.087C80.9833 136.067 80.6975 136.221 80.4351 136.68C78.7869 139.556 77.1044 142.412 75.4292 145.272C75.3268 145.451 75.2621 145.656 75.041 145.78C74.9241 145.581 74.8217 145.421 74.7282 145.241C73.1105 142.344 71.5036 139.45 69.9093 136.543C69.8482 136.392 69.7394 136.266 69.5995 136.182C69.4595 136.099 69.2962 136.064 69.1346 136.083C67.9572 136.112 66.7799 136.083 65.6026 136.096C64.8476 136.096 64.9177 136.006 64.9177 136.793C64.9177 142.151 64.9177 147.508 64.9177 152.866C64.9177 153.238 64.9267 153.612 64.9321 153.984H68.7068V143.478C68.8973 143.517 68.9242 143.641 68.9764 143.737C70.817 147.019 72.6564 150.301 74.4945 153.585C74.5375 153.671 74.5748 153.761 74.606 153.853C74.7767 153.955 74.8468 153.836 74.9205 153.712L76.0907 151.735C77.6485 149.099 79.2093 146.468 80.773 143.843C80.856 143.635 80.997 143.455 81.1793 143.325V143.803C81.1793 146.981 81.1793 150.156 81.1793 153.33C81.1793 153.545 81.19 153.761 81.1954 153.977H85.2037C85.256 153.767 85.27 153.55 85.2451 153.335C85.2439 151.401 85.2427 149.462 85.2415 147.518Z" fill="#990D81"/>
<path d="M61.6314 150.445C58.0006 150.445 54.3691 150.445 50.7371 150.445C50.1835 150.445 50.1799 150.445 50.1781 149.918C50.1781 148.976 50.1781 148.033 50.1781 147.091C50.1781 146.58 50.1781 146.578 50.6903 146.573H50.9833C53.2805 146.573 55.5776 146.573 57.8748 146.573C58.3277 146.573 58.3349 146.573 58.3367 146.129C58.3367 145.286 58.3367 144.441 58.3367 143.597C58.3367 143.045 58.3367 143.093 57.81 143.09C56.4368 143.081 55.0617 143.09 53.6885 143.09C52.6675 143.09 51.6466 143.09 50.6328 143.09C50.1943 143.09 50.1871 143.079 50.1835 142.628C50.1835 141.842 50.1835 141.057 50.1835 140.271C50.1835 139.865 50.1943 139.856 50.6149 139.856C51.9486 139.856 53.2841 139.856 54.6196 139.856C56.9551 139.856 59.2917 139.856 61.6296 139.856C62.0772 139.856 62.0826 139.856 62.0862 139.401C62.0862 138.576 62.0862 137.751 62.0862 136.928C62.0862 136.265 62.1653 136.299 61.4481 136.299C56.5794 136.299 51.7113 136.299 46.8438 136.299C45.9649 136.299 46.0835 136.202 46.0835 137.036C46.0835 142.688 46.0835 148.342 46.0835 153.997H62.3468C62.3468 153.055 62.3684 152.113 62.3684 151.171C62.3576 150.341 62.4439 150.454 61.6314 150.445Z" fill="#990D81"/>
<path d="M184.522 143.048C187.24 140.765 189.956 138.481 192.672 136.194V136.078C191.054 136.078 189.453 136.106 187.844 136.088C187.416 136.073 186.998 136.22 186.674 136.5C184.209 138.51 181.735 140.507 179.252 142.493C179.112 142.604 179.006 142.809 178.745 142.748V142.272C178.745 140.366 178.745 138.462 178.745 136.558C178.745 136.11 178.736 136.103 178.287 136.101C177.226 136.101 176.166 136.101 175.107 136.101C174.654 136.101 174.654 136.101 174.643 136.552C174.643 136.669 174.643 136.788 174.643 136.912V152.05C174.643 152.521 174.656 152.993 174.643 153.463C174.633 153.763 174.73 153.876 175.042 153.872C176.142 153.856 177.241 153.858 178.341 153.872C178.634 153.872 178.792 153.8 178.754 153.479C178.747 153.359 178.747 153.239 178.754 153.119C178.754 151.488 178.754 149.859 178.754 148.23C178.754 148.05 178.707 147.837 178.903 147.691C179.565 147.201 180.224 146.707 180.881 146.208C180.905 146.184 180.935 146.166 180.967 146.155C181 146.145 181.034 146.142 181.068 146.148C181.102 146.153 181.134 146.167 181.162 146.187C181.189 146.207 181.212 146.233 181.227 146.264C181.299 146.357 181.375 146.444 181.45 146.539C183.357 148.86 185.262 151.182 187.166 153.504C187.249 153.621 187.36 153.716 187.489 153.779C187.618 153.842 187.761 153.871 187.905 153.863C189.28 153.844 190.655 153.863 192.028 153.851C192.151 153.851 192.303 153.926 192.388 153.768C192.311 153.587 192.197 153.424 192.053 153.29C189.515 150.143 186.976 146.997 184.434 143.85C184.084 143.417 183.997 143.489 184.522 143.048Z" fill="#990D81"/>
<path d="M105.452 151.749C103.097 146.792 100.748 141.833 98.4039 136.874C98.1846 136.406 97.9347 136.245 97.4333 136.277C96.7281 136.32 96.021 136.32 95.3159 136.277C94.8413 136.25 94.5969 136.403 94.392 136.85C92.4921 141.002 90.5616 145.14 88.6401 149.285C87.9212 150.849 87.2022 152.42 86.4922 153.987H90.3801C91.0325 152.668 91.6904 151.354 92.3267 150.033C92.4651 149.747 92.6574 149.698 92.936 149.7C94.6238 149.7 96.3134 149.7 98.003 149.7C98.5531 149.7 99.1031 149.7 99.6531 149.7C99.7494 149.689 99.8466 149.71 99.93 149.759C100.013 149.809 100.078 149.884 100.115 149.973C100.748 151.259 101.393 152.537 102.031 153.82C102.047 153.879 102.052 153.939 102.047 154H106.408C106.494 153.82 106.365 153.703 106.302 153.568C106.025 152.961 105.737 152.352 105.452 151.749ZM93.8743 146.537L96.2847 141.817C97.1097 143.458 97.8682 144.973 98.6591 146.548L93.8743 146.537Z" fill="#990D81"/>
<path d="M129.614 144.927C129.424 144.799 129.188 144.729 129.044 144.54C129.059 144.508 129.062 144.488 129.075 144.477C129.152 144.416 129.23 144.357 129.309 144.298C130.308 143.579 130.898 142.619 130.98 141.386C131.16 138.835 129.902 136.944 127.441 136.34C126.675 136.167 125.89 136.087 125.104 136.101C121.569 136.101 118.034 136.101 114.499 136.101C113.982 136.101 113.975 136.101 113.975 136.61C113.975 142.187 113.975 147.764 113.975 153.342C113.975 153.855 113.975 153.855 114.49 153.86H114.726C118.026 153.86 121.326 153.86 124.624 153.86C125.331 153.864 126.038 153.827 126.74 153.749C129.567 153.423 131.681 151.502 131.534 148.322C131.521 147.641 131.339 146.974 131.004 146.381C130.669 145.788 130.191 145.289 129.614 144.927ZM118.075 140.136C118.075 139.707 118.085 139.692 118.484 139.692C120.584 139.692 122.684 139.695 124.786 139.701C125.179 139.696 125.571 139.752 125.947 139.865C126.621 140.081 126.916 140.528 126.905 141.303C126.895 142.035 126.582 142.471 125.931 142.673C125.456 142.798 124.965 142.853 124.474 142.834C123.589 142.843 122.707 142.834 121.822 142.834C120.724 142.834 119.624 142.834 118.524 142.834C118.084 142.834 118.078 142.824 118.075 142.371C118.07 141.628 118.07 140.883 118.075 140.136ZM126.424 149.931C125.728 150.252 124.975 150.265 124.231 150.29C123.426 150.312 122.613 150.29 121.815 150.29C120.737 150.29 119.658 150.29 118.58 150.29C118.085 150.29 118.078 150.29 118.076 149.819C118.076 148.816 118.076 147.815 118.076 146.814C118.076 146.534 118.168 146.44 118.448 146.442C120.605 146.454 122.762 146.442 124.919 146.467C125.392 146.471 125.86 146.558 126.303 146.724C127.008 146.988 127.346 147.519 127.382 148.259C127.418 149 127.136 149.604 126.424 149.931Z" fill="#990D81"/>
<path d="M171.703 136.094C170.779 136.11 169.857 136.094 168.933 136.094C168.257 136.094 168.306 136.038 168.306 136.737C168.306 139.878 168.306 143.019 168.306 146.161C168.306 146.357 168.372 146.576 168.18 146.808C168.013 146.618 167.876 146.449 167.725 146.296C164.52 143.029 161.316 139.763 158.114 136.496C157.996 136.357 157.846 136.247 157.678 136.176C157.509 136.104 157.326 136.073 157.144 136.085C156.378 136.113 155.612 136.085 154.847 136.094C154.128 136.094 154.165 136.016 154.165 136.744V153.178C154.165 153.297 154.165 153.414 154.165 153.538C154.153 153.754 154.235 153.861 154.467 153.86C155.528 153.86 156.588 153.86 157.649 153.86C157.868 153.86 157.981 153.786 157.974 153.558C157.974 153.399 157.974 153.243 157.974 153.085C157.974 149.925 157.974 146.764 157.974 143.602C157.947 143.389 157.962 143.174 158.019 142.967C158.22 142.987 158.296 143.147 158.4 143.246C159.106 143.954 159.807 144.669 160.512 145.381C163.187 148.092 165.861 150.804 168.536 153.518C168.637 153.635 168.763 153.726 168.906 153.786C169.048 153.846 169.202 153.872 169.356 153.863C170.075 153.84 170.81 153.863 171.536 153.863C172.109 153.863 172.109 153.863 172.115 153.284V136.845C172.115 136.726 172.106 136.608 172.115 136.485C172.143 136.183 172.007 136.088 171.703 136.094Z" fill="#990D81"/>
<path d="M148.716 146.221C147.185 142.996 145.656 139.771 144.129 136.547C143.976 136.221 143.8 136.076 143.426 136.09C142.623 136.119 141.809 136.123 141.014 136.09C140.62 136.074 140.428 136.203 140.263 136.563C137.686 142.154 135.102 147.742 132.51 153.326C132.44 153.479 132.305 153.621 132.386 153.865C133.548 153.865 134.723 153.865 135.893 153.865C136.183 153.865 136.253 153.669 136.341 153.481C136.929 152.305 137.529 151.144 138.097 149.95C138.15 149.807 138.25 149.686 138.38 149.606C138.511 149.527 138.664 149.494 138.816 149.514C140.955 149.53 143.094 149.533 145.233 149.514C145.643 149.514 145.858 149.629 146.036 150.01C146.586 151.18 147.185 152.328 147.765 153.484C147.861 153.676 147.925 153.869 148.213 153.867C149.547 153.854 150.88 153.867 152.259 153.867C152.245 153.665 152.184 153.469 152.079 153.295C150.956 150.934 149.835 148.575 148.716 146.221ZM139.795 146.4C139.84 146.005 141.593 142.495 142.132 141.727L144.481 146.4H139.795Z" fill="#990D81"/>
</svg>
