<svg width="45" height="45" viewBox="0 0 45 45" fill="none" xmlns="http://www.w3.org/2000/svg">
<g clip-path="url(#clip0_57_118)">
<path fill-rule="evenodd" clip-rule="evenodd" d="M22.5257 41.7143C33.1233 41.7143 41.7143 33.1233 41.7143 22.5257C41.7143 11.9282 33.1233 3.33716 22.5257 3.33716C11.9282 3.33716 3.33716 11.9282 3.33716 22.5257C3.33716 26.6464 4.63603 30.4637 6.8467 33.5905L4.58507 41.0027L11.7921 38.4337C14.8556 40.5048 18.5494 41.7143 22.5257 41.7143Z" fill="url(#paint0_linear_57_118)"/>
<path fill-rule="evenodd" clip-rule="evenodd" d="M38.2714 6.53571C34.0607 2.325 28.4571 0 22.4893 0C10.1893 0 0.192857 10.0071 0.182143 22.2964C0.182143 26.2286 1.21071 30.0643 3.16071 33.4393L0 45L11.8286 41.9036C15.0857 43.6821 18.75 44.6143 22.4893 44.6143H22.5C34.7893 44.6143 44.7964 34.6071 44.8071 22.3179C44.8071 16.35 42.4821 10.7464 38.2714 6.53571ZM22.5 40.8429C19.1679 40.8429 15.9 39.9429 13.0607 38.2607L12.3857 37.8643L5.36786 39.7071L7.24286 32.8714L6.80357 32.175C4.95 29.2286 3.96429 25.8107 3.96429 22.3071C3.96429 12.0857 12.2893 3.77143 22.5107 3.77143C27.4607 3.77143 32.1214 5.7 35.6143 9.20357C39.1179 12.7071 41.0464 17.3679 41.0357 22.3179C41.025 32.5286 32.7107 40.8429 22.5 40.8429ZM32.6679 26.9679C32.1107 26.6893 29.3679 25.3393 28.8643 25.1571C28.35 24.975 27.9857 24.8786 27.6107 25.4357C27.2357 25.9929 26.175 27.2464 25.8429 27.6214C25.5214 27.9964 25.1893 28.0393 24.6321 27.7607C24.075 27.4821 22.275 26.8929 20.1536 24.9964C18.4929 23.5179 17.3786 21.6964 17.0571 21.1393C16.7357 20.5821 17.025 20.2821 17.3036 20.0036C17.55 19.7571 17.8607 19.35 18.1393 19.0286C18.4179 18.7071 18.5143 18.4714 18.6964 18.0964C18.8786 17.7214 18.7929 17.4 18.6536 17.1214C18.5143 16.8429 17.4 14.1 16.9393 12.9857C16.4893 11.9036 16.0286 12.0429 15.6857 12.0321C15.3643 12.0107 14.9893 12.0107 14.6143 12.0107C14.2393 12.0107 13.6393 12.15 13.125 12.7071C12.6107 13.2643 11.175 14.6143 11.175 17.3571C11.175 20.1 13.1679 22.7464 13.4464 23.1214C13.725 23.4964 17.3786 29.1214 22.9714 31.5321C24.3 32.1107 25.3393 32.4536 26.1536 32.7107C27.4929 33.1393 28.7036 33.075 29.6679 32.9357C30.7393 32.775 32.9679 31.5857 33.4286 30.2893C33.8893 28.9929 33.8893 27.8679 33.75 27.6429C33.5893 27.3857 33.225 27.2464 32.6679 26.9679Z" fill="white"/>
</g>
<defs>
<linearGradient id="paint0_linear_57_118" x1="22.5257" y1="41.7143" x2="22.5257" y2="3.33716" gradientUnits="userSpaceOnUse">
<stop stop-color="#25CF43"/>
<stop offset="1" stop-color="#61FD7D"/>
</linearGradient>
<clipPath id="clip0_57_118">
<rect width="45" height="45" fill="white"/>
</clipPath>
</defs>
</svg>
