<svg width="80" height="60" viewBox="0 0 80 60" fill="none" xmlns="http://www.w3.org/2000/svg">
<path fill-rule="evenodd" clip-rule="evenodd" d="M47.5133 41.813C46.8276 42.6978 46.8276 43.2065 46.7391 43.8038V52.4305V53.2046C46.7391 56.3899 49.3271 58.9779 52.5124 58.9779C53.7953 58.9779 54.9676 58.5576 55.9409 57.8498C57.3566 56.788 58.2856 55.1069 58.2856 53.2046V45.6176C58.7943 45.6618 59.281 45.6618 59.7897 45.6618C62.3999 45.6618 64.8994 45.1973 67.1777 44.3789C74.5214 41.7024 79.7196 35.155 79.7196 27.5016C79.7196 17.4592 70.8053 9.31918 59.8118 9.31918C59.3031 9.31918 58.7943 9.3413 58.3077 9.36342C58.2856 9.36342 58.2635 9.36342 58.2414 9.36342C58.9492 6.88601 57.9317 4.14317 55.6091 2.79387C52.8663 1.17913 49.305 2.10816 47.7124 4.851L29.7954 35.3983L24.7743 43.9586C23.8452 45.5512 23.7567 47.4093 24.3982 49.0019L24.8627 49.8203C25.9245 51.6342 27.8268 52.6517 29.7954 52.6738C31.7641 52.6517 33.6664 51.6342 34.7281 49.8203L35.1926 49.0019L52.1584 20.0915C53.8174 18.6758 55.9409 17.7025 58.3077 17.415C58.7943 17.3486 59.3031 17.3265 59.8118 17.3265C65.9832 17.3265 70.9823 21.8832 70.9823 27.5016C70.9823 33.12 65.9832 37.6766 59.8118 37.6766C59.3031 37.6766 58.7943 37.6545 58.3077 37.5881V37.6103C57.7547 37.5439 57.2017 37.4997 56.6487 37.4997C52.8884 37.4997 49.5704 39.2029 47.5354 41.7909L47.5133 41.813Z" fill="#146EF5"/>
<path fill-rule="evenodd" clip-rule="evenodd" d="M28.6892 35.3983L10.7723 4.85098C9.15755 2.10814 5.6184 1.17911 2.87556 2.79385C1.7917 3.43532 0.995386 4.36435 0.530873 5.44821C0.176958 6.17816 0 6.99659 0 7.88138V53.2268C0 56.412 2.588 59 5.77324 59C8.95848 59 11.5465 56.412 11.5465 53.2268V28.9836L23.292 49.0019C22.6727 47.4093 22.739 45.5512 23.6681 43.9586L28.6892 35.3983Z" fill="#146EF5"/>
<path fill-rule="evenodd" clip-rule="evenodd" d="M58.1744 17.4371C55.8518 17.7468 53.7726 18.6979 52.1357 20.1136L50.4546 22.967C52.0693 20.6224 54.8785 18.9855 58.1744 18.6758C58.5283 18.6316 58.9043 18.6316 59.2804 18.6316C64.943 18.6316 69.5439 22.6131 69.5439 27.5237C69.5439 32.4343 64.943 36.4158 59.2804 36.4158C58.9043 36.4158 58.5504 36.3937 58.1744 36.3716V36.3937C53.1753 35.8628 47.6896 37.4776 46.7606 42.4987V43.5605C46.827 43.0517 46.9155 42.5872 47.4906 41.8351C49.5035 39.225 52.8435 37.5439 56.6039 37.5439C57.1348 37.5439 57.6435 37.5882 58.1744 37.6324C58.2186 37.6324 58.2407 37.6324 58.285 37.6545V37.6324C58.7716 37.6988 59.2804 37.7209 59.7891 37.7209C65.9605 37.7209 70.9596 33.1642 70.9596 27.5458C70.9596 21.9274 65.9605 17.3708 59.7891 17.3708C59.2804 17.3708 58.7716 17.3929 58.285 17.4592C58.2407 17.4592 58.2186 17.4592 58.1744 17.4814V17.4371Z" fill="#F6A74A"/>
</svg>
