<?xml version="1.0" encoding="UTF-8"?>
<!DOCTYPE svg PUBLIC "-//W3C//DTD SVG 1.1//EN" "http://www.w3.org/Graphics/SVG/1.1/DTD/svg11.dtd">
<!-- Creator: CorelDRAW -->
<svg xmlns="http://www.w3.org/2000/svg" xml:space="preserve" width="0.972118in" height="0.203681in" version="1.1" style="shape-rendering:geometricPrecision; text-rendering:geometricPrecision; image-rendering:optimizeQuality; fill-rule:evenodd; clip-rule:evenodd"
viewBox="0 0 142.84 29.93"
 xmlns:xlink="http://www.w3.org/1999/xlink"
 xmlns:xodm="http://www.corel.com/coreldraw/odm/2003">
 <defs>
  <style type="text/css">
   <![CDATA[
    .fil1 {fill:#146EF5}
    .fil2 {fill:#F6A74A}
    .fil0 {fill:#146EF5;fill-rule:nonzero}
   ]]>
  </style>
 </defs>
 <g id="Layer_x0020_1">
  <metadata id="CorelCorpID_0Corel-Layer"/>
  <g id="_2044548900960">
   <path class="fil0" d="M46.19 24.49c-2.63,-0.01 -4.69,-0.8 -6.18,-2.39 -1.49,-1.59 -2.24,-3.6 -2.24,-6.04l0 -0.61c0,-2.65 0.71,-4.81 2.11,-6.47 1.41,-1.67 3.43,-2.5 6.09,-2.49 2.34,0 4.16,0.7 5.44,2.1 1.29,1.4 1.93,3.32 1.93,5.75l0 2.84 -9.93 0 -0.03 0.09c0.08,0.91 0.42,1.64 1.01,2.2 0.59,0.56 1.43,0.84 2.53,0.84 1.04,0 1.9,-0.09 2.59,-0.26 0.69,-0.17 1.48,-0.44 2.37,-0.82l1.3 3.3c-0.75,0.55 -1.75,1.01 -3.01,1.38 -1.26,0.37 -2.59,0.56 -3.97,0.56zm-0.21 -13.83c-0.86,0 -1.5,0.27 -1.91,0.83 -0.41,0.55 -0.65,1.3 -0.71,2.24l0.03 0.08 4.68 0 0 -0.42c0,-0.9 -0.16,-1.58 -0.47,-2.03 -0.32,-0.46 -0.85,-0.69 -1.61,-0.69z"/>
   <polygon class="fil0" points="61.92,17 62.24,18.84 62.34,18.86 62.69,17 64.98,6.81 70.67,6.81 65.03,24.15 59.53,24.15 53.9,6.81 59.6,6.81 "/>
   <path class="fil0" d="M82.08 24.13c-0.2,-0.36 -0.37,-0.78 -0.52,-1.24 -0.14,-0.45 -0.25,-0.94 -0.33,-1.44 -0.47,0.92 -1.05,1.65 -1.74,2.2 -0.69,0.55 -1.59,0.82 -2.7,0.83 -1.82,-0.01 -3.23,-0.47 -4.24,-1.41 -1.01,-0.93 -1.52,-2.21 -1.52,-3.82 0,-1.72 0.65,-3.05 1.94,-3.98 1.3,-0.93 3.25,-1.4 5.88,-1.4l2.23 0 0 -1.24c0,-0.73 -0.18,-1.3 -0.53,-1.7 -0.35,-0.39 -0.89,-0.59 -1.62,-0.59 -0.63,0 -1.1,0.14 -1.4,0.44 -0.31,0.3 -0.46,0.75 -0.46,1.37l-5.26 -0.02 -0.03 -0.1c-0.07,-1.58 0.59,-2.9 1.98,-3.97 1.39,-1.06 3.24,-1.6 5.52,-1.6 2.14,0 3.88,0.54 5.21,1.6 1.33,1.07 2,2.6 2,4.58l0 6.54c0,0.92 0.08,1.77 0.23,2.56 0.16,0.79 0.39,1.58 0.7,2.37l-5.35 -0.02zm-3.81 -3.51c0.66,0 1.25,-0.15 1.76,-0.47 0.51,-0.31 0.86,-0.68 1.07,-1.1l0 -2.29 -2.18 0c-0.86,0 -1.49,0.21 -1.87,0.63 -0.39,0.42 -0.58,0.94 -0.58,1.59 0,0.49 0.17,0.89 0.5,1.19 0.34,0.31 0.77,0.45 1.31,0.45z"/>
   <path class="fil0" d="M95.21 16.15l0 8 -5.41 0 0 -23.33 8.91 0c2.77,0 4.96,0.71 6.59,2.12 1.62,1.41 2.43,3.27 2.43,5.56 0,2.3 -0.81,4.15 -2.43,5.55 -1.62,1.41 -3.82,2.11 -6.59,2.11l-3.49 0zm0 -4.17l3.49 0c1.18,0 2.07,-0.32 2.69,-0.97 0.62,-0.65 0.93,-1.48 0.93,-2.49 0,-1.04 -0.31,-1.89 -0.92,-2.55 -0.61,-0.66 -1.51,-1 -2.7,-1l-3.49 0 0 7z"/>
   <path class="fil0" d="M120.23 24.13c-0.2,-0.36 -0.37,-0.78 -0.52,-1.24 -0.14,-0.45 -0.25,-0.94 -0.33,-1.44 -0.47,0.92 -1.05,1.65 -1.74,2.2 -0.69,0.55 -1.59,0.82 -2.7,0.83 -1.82,-0.01 -3.23,-0.47 -4.24,-1.41 -1.01,-0.93 -1.52,-2.21 -1.52,-3.82 0,-1.72 0.65,-3.05 1.94,-3.98 1.3,-0.93 3.25,-1.4 5.88,-1.4l2.23 0 0 -1.24c0,-0.73 -0.18,-1.3 -0.53,-1.7 -0.35,-0.39 -0.89,-0.59 -1.62,-0.59 -0.63,0 -1.1,0.14 -1.4,0.44 -0.31,0.3 -0.46,0.75 -0.46,1.37l-5.26 -0.02 -0.03 -0.1c-0.07,-1.58 0.58,-2.9 1.98,-3.97 1.39,-1.06 3.24,-1.6 5.52,-1.6 2.14,0 3.88,0.54 5.21,1.6 1.33,1.07 2,2.6 2,4.58l0 6.54c0,0.92 0.08,1.77 0.23,2.56 0.16,0.79 0.39,1.58 0.7,2.37l-5.35 -0.02zm-3.81 -3.51c0.66,0 1.25,-0.15 1.76,-0.47 0.51,-0.31 0.86,-0.68 1.07,-1.1l0 -2.29 -2.18 0c-0.86,0 -1.49,0.21 -1.87,0.63 -0.39,0.42 -0.58,0.94 -0.58,1.59 0,0.49 0.17,0.89 0.5,1.19 0.34,0.31 0.77,0.45 1.31,0.45z"/>
   <path class="fil0" d="M134.1 15.29l0.02 0.13 0.09 0 2.87 -9.82 5.76 0 -6.9 19.92c-0.54,1.28 -1.23,2.34 -2.07,3.17 -0.84,0.83 -2.19,1.25 -4.03,1.25 -0.47,0 -0.85,-0.03 -1.15,-0.09 -0.3,-0.06 -0.77,-0.17 -1.41,-0.33l0.66 -3.86c0.15,0.03 0.26,0.05 0.33,0.07 0.08,0.02 0.17,0.03 0.29,0.03 0.85,0 1.48,-0.13 1.88,-0.38 0.39,-0.25 0.69,-0.63 0.88,-1.13l0.43 -1.12 -5.99 -17.53 5.75 0 2.58 9.7z"/>
   <g>
    <path class="fil1" d="M21.49 17.99c-0.31,0.4 -0.31,0.63 -0.35,0.9l0 3.9 0 0.35c0,1.44 1.17,2.61 2.61,2.61 0.58,0 1.11,-0.19 1.55,-0.51 0.64,-0.48 1.06,-1.24 1.06,-2.1l0 -3.43c0.23,0.02 0.45,0.02 0.68,0.02 1.18,0 2.31,-0.21 3.34,-0.58 3.32,-1.21 5.67,-4.17 5.67,-7.63 0,-4.54 -4.03,-8.22 -9,-8.22 -0.23,0 -0.46,0.01 -0.68,0.02 -0.01,0 -0.02,0 -0.03,0 0.32,-1.12 -0.14,-2.36 -1.19,-2.97 -1.24,-0.73 -2.85,-0.31 -3.57,0.93l-8.1 13.81 -2.27 3.87c-0.42,0.72 -0.46,1.56 -0.17,2.28l0.21 0.37c0.48,0.82 1.34,1.28 2.23,1.29 0.89,-0.01 1.75,-0.47 2.23,-1.29l0.21 -0.37 7.67 -13.07c0.75,-0.64 1.71,-1.08 2.78,-1.21 0.22,-0.03 0.45,-0.04 0.68,-0.04 2.79,0 5.05,2.06 5.05,4.6 0,2.54 -2.26,4.6 -5.05,4.6 -0.23,0 -0.46,-0.01 -0.68,-0.04l0 0.01c-0.25,-0.03 -0.5,-0.05 -0.75,-0.05 -1.7,0 -3.2,0.77 -4.12,1.94z"/>
    <path class="fil1" d="M12.98 15.09l-8.1 -13.81c-0.73,-1.24 -2.33,-1.66 -3.57,-0.93 -0.49,0.29 -0.85,0.71 -1.06,1.2 -0.16,0.33 -0.24,0.7 -0.24,1.1l0 20.5c0,1.44 1.17,2.61 2.61,2.61 1.44,0 2.61,-1.17 2.61,-2.61l0 -10.96 5.31 9.05c-0.28,-0.72 -0.25,-1.56 0.17,-2.28l2.27 -3.87z"/>
    <path class="fil2" d="M26.31 6.97c-1.05,0.14 -1.99,0.57 -2.73,1.21l-0.76 1.29c0.73,-1.06 2,-1.8 3.49,-1.94 0.16,-0.02 0.33,-0.02 0.5,-0.02 2.56,0 4.64,1.8 4.64,4.02 0,2.22 -2.08,4.02 -4.64,4.02 -0.17,0 -0.33,-0.01 -0.5,-0.02l0 0.01c-2.26,-0.24 -4.74,0.49 -5.16,2.76l0 0.48c0.03,-0.23 0.07,-0.44 0.33,-0.78 0.91,-1.18 2.42,-1.94 4.12,-1.94 0.24,0 0.47,0.02 0.71,0.04 0.02,0 0.03,0 0.05,0.01l0 -0.01c0.22,0.03 0.45,0.04 0.68,0.04 2.79,0 5.05,-2.06 5.05,-4.6 0,-2.54 -2.26,-4.6 -5.05,-4.6 -0.23,0 -0.46,0.01 -0.68,0.04 -0.02,0 -0.03,0 -0.05,0.01z"/>
   </g>
  </g>
 </g>
</svg>
